Geologica-SharpBlackItalic.ufo
<glyph name="parenright" format="2">
  <advance width="756"/>
  <unicode hex="0029"/>
  <outline>
    <contour>
      <point x="303" y="-152" type="line"/>
      <point x="568" y="193"/>
      <point x="720" y="597"/>
      <point x="721" y="1022" type="curve" smooth="yes"/>
      <point x="722" y="1197"/>
      <point x="696" y="1370"/>
      <point x="642" y="1542" type="curve"/>
      <point x="293" y="1542" type="line"/>
      <point x="348" y="1388"/>
      <point x="372" y="1216"/>
      <point x="371" y="1038" type="curve" smooth="yes"/>
      <point x="373" y="608"/>
      <point x="204" y="152"/>
      <point x="-85" y="-152" type="curve"/>
    </contour>
  </outline>
</glyph>
<glyph name="asterisk" format="2">
  <advance width="1214"/>
  <unicode hex="002A"/>
  <outline>
    <contour>
      <point x="444" y="438" type="line"/>
      <point x="632" y="648" type="line"/>
      <point x="718" y="380" type="line"/>
      <point x="1062" y="522" type="line"/>
      <point x="922" y="764" type="line"/>
      <point x="1202" y="772" type="line"/>
      <point x="1164" y="1140" type="line"/>
      <point x="888" y="1084" type="line"/>
      <point x="978" y="1350" type="line"/>
      <point x="610" y="1428" type="line"/>
      <point x="582" y="1150" type="line"/>
      <point x="354" y="1312" type="line"/>
      <point x="166" y="992" type="line"/>
      <point x="418" y="872" type="line"/>
      <point x="192" y="706" type="line"/>
    </contour>
  </outline>
</glyph>
<glyph name="hyphen" format="2">
  <advance width="800"/>
  <unicode hex="002D"/>
  <outline>
    <contour>
      <point x="62" y="392" type="line"/>
      <point x="682" y="392" type="line"/>
      <point x="758" y="742" type="line"/>
      <point x="138" y="742" type="line"/>
    </contour>
  </outline>
</glyph>
<glyph name="slash" format="2">
  <advance width="904"/>
  <unicode hex="002F"/>
  <outline>
    <contour>
      <point x="138" y="-220" type="line"/>
      <point x="1227" y="1600" type="line"/>
      <point x="842" y="1600" type="line"/>
      <point x="-247" y="-220" type="line"/>
    </contour>
  </outline>
</glyph>
<glyph name="one" format="2">
  <advance width="971"/>
  <unicode hex="0031"/>
  <outline>
    <contour>
      <point x="298" y="0" type="line"/>
      <point x="666" y="0" type="line"/>
      <point x="970" y="1430" type="line"/>
      <point x="942" y="1430" type="line"/>
      <point x="272" y="1220" type="line"/>
      <point x="194" y="858" type="line"/>
      <point x="502" y="952" type="line"/>
    </contour>
  </outline>
</glyph>
<glyph name="two" format="2">
  <advance width="1222"/>
  <unicode hex="0032"/>
  <outline>
    <contour>
      <point x="-8" y="0" type="line"/>
      <point x="984" y="0" type="line"/>
      <point x="1134" y="326" type="line"/>
      <point x="610" y="326" type="line"/>
      <point x="712" y="408" type="line" smooth="yes"/>
      <point x="992" y="632"/>
      <point x="1188" y="794"/>
      <point x="1188" y="1040" type="curve" smooth="yes"/>
      <point x="1188" y="1268"/>
      <point x="1010" y="1430"/>
      <point x="698" y="1430" type="curve" smooth="yes"/>
      <point x="576" y="1430"/>
      <point x="446" y="1402"/>
      <point x="326" y="1346" type="curve"/>
      <point x="246" y="966" type="line"/>
      <point x="358" y="1054"/>
      <point x="470" y="1096"/>
      <point x="600" y="1096" type="curve" smooth="yes"/>
      <point x="734" y="1096"/>
      <point x="808" y="1050"/>
      <point x="808" y="966" type="curve" smooth="yes"/>
      <point x="808" y="812"/>
      <point x="642" y="698"/>
      <point x="412" y="528" type="curve" smooth="yes"/>
      <point x="46" y="258" type="line"/>
    </contour>
  </outline>
</glyph>
<glyph name="three" format="2">
  <advance width="1172"/>
  <unicode hex="0033"/>
  <outline>
    <contour>
      <point x="468" y="-32" type="curve" smooth="yes"/>
      <point x="782" y="-32"/>
      <point x="1050" y="164"/>
      <point x="1050" y="464" type="curve" smooth="yes"/>
      <point x="1050" y="658"/>
      <point x="922" y="778"/>
      <point x="784" y="814" type="curve"/>
      <point x="1134" y="1108" type="line"/>
      <point x="1194" y="1400" type="line"/>
      <point x="298" y="1400" type="line"/>
      <point x="150" y="1078" type="line"/>
      <point x="670" y="1078" type="line"/>
      <point x="310" y="822" type="line"/>
      <point x="358" y="586" type="line"/>
      <point x="404" y="596"/>
      <point x="450" y="600"/>
      <point x="494" y="600" type="curve" smooth="yes"/>
      <point x="606" y="600"/>
      <point x="682" y="552"/>
      <point x="682" y="464" type="curve" smooth="yes"/>
      <point x="682" y="366"/>
      <point x="594" y="302"/>
      <point x="474" y="302" type="curve" smooth="yes"/>
      <point x="326" y="302"/>
      <point x="180" y="364"/>
      <point x="116" y="456" type="curve"/>
      <point x="40" y="98" type="line"/>
      <point x="136" y="22"/>
      <point x="302" y="-32"/>
    </contour>
  </outline>
</glyph>
<glyph name="less" format="2">
  <advance width="1296"/>
  <unicode hex="003C"/>
  <outline>
    <contour>
      <point x="1127" y="44" type="line"/>
      <point x="1185" y="317" type="line"/>
      <point x="508" y="612" type="line"/>
      <point x="1311" y="915" type="line"/>
      <point x="1376" y="1227" type="line"/>
      <point x="120" y="764" type="line"/>
      <point x="64" y="494" type="line"/>
    </contour>
  </outline>
</glyph>
<glyph name="C" format="2">
  <advance width="1304"/>
  <unicode hex="0043"/>
  <anchor x="690" y="0" name="bottom"/>
  <anchor x="916" y="1400" name="top"/>
  <outline>
    <contour>
      <point x="792" y="-30" type="curve" smooth="yes"/>
      <point x="916" y="-30"/>
      <point x="1028" y="-10"/>
      <point x="1122" y="24" type="curve"/>
      <point x="1216" y="454" type="line"/>
      <point x="1096" y="390"/>
      <point x="966" y="364"/>
      <point x="852" y="364" type="curve" smooth="yes"/>
      <point x="646" y="364"/>
      <point x="532" y="470"/>
      <point x="532" y="642" type="curve" smooth="yes"/>
      <point x="532" y="868"/>
      <point x="670" y="1036"/>
      <point x="898" y="1036" type="curve" smooth="yes"/>
      <point x="1052" y="1036"/>
      <point x="1174" y="990"/>
      <point x="1244" y="902" type="curve"/>
      <point x="1336" y="1320" type="line"/>
      <point x="1220" y="1398"/>
      <point x="1090" y="1430"/>
      <point x="916" y="1430" type="curve" smooth="yes"/>
      <point x="456" y="1430"/>
      <point x="102" y="1062"/>
      <point x="102" y="586" type="curve" smooth="yes"/>
      <point x="102" y="194"/>
      <point x="398" y="-30"/>
    </contour>
  </outline>
</glyph>
<glyph name="D" format="2">
  <advance width="1485"/>
  <unicode hex="0044"/>
  <anchor x="479" y="712" name="bar"/>
  <anchor x="909" y="1400" name="top"/>
  <outline>
    <contour>
      <point x="45" y="0" type="line"/>
      <point x="647" y="0" type="line" smooth="yes"/>
      <point x="1119" y="0"/>
      <point x="1455" y="336"/>
      <point x="1455" y="788" type="curve" smooth="yes"/>
      <point x="1455" y="1182"/>
      <point x="1155" y="1400"/>
      <point x="735" y="1400" type="curve" smooth="yes"/>
      <point x="341" y="1400" type="line"/>
    </contour>
    <contour>
      <point x="529" y="376" type="line"/>
      <point x="665" y="1024" type="line"/>
      <point x="715" y="1024" type="line" smooth="yes"/>
      <point x="903" y="1024"/>
      <point x="1029" y="936"/>
      <point x="1029" y="754" type="curve" smooth="yes"/>
      <point x="1029" y="532"/>
      <point x="895" y="376"/>
      <point x="669" y="376" type="curve" smooth="yes"/>
    </contour>
  </outline>
</glyph>
<glyph name="I" format="2">
  <advance width="714"/>
  <unicode hex="0049"/>
  <anchor x="247" y="0" name="bottom"/>
  <anchor x="449" y="0" name="ogonek"/>
  <anchor x="543" y="1400" name="top"/>
  <anchor x="225" y="1400" name="topleft"/>
  <outline>
    <contour>
      <point x="45" y="0" type="line"/>
      <point x="449" y="0" type="line"/>
      <point x="745" y="1400" type="line"/>
      <point x="341" y="1400" type="line"/>
    </contour>
  </outline>
</glyph>
<glyph name="K" format="2">
  <advance width="1520"/>
  <unicode hex="004B"/>
  <anchor x="681" y="0" name="bottom"/>
  <outline>
    <contour>
      <point x="45" y="0" type="line"/>
      <point x="449" y="0" type="line"/>
      <point x="517" y="314" type="line"/>
      <point x="669" y="450" type="line"/>
      <point x="921" y="0" type="line"/>
      <point x="1423" y="0" type="line"/>
      <point x="985" y="736" type="line"/>
      <point x="1655" y="1400" type="line"/>
      <point x="1123" y="1400" type="line"/>
      <point x="641" y="914" type="line"/>
      <point x="745" y="1400" type="line"/>
      <point x="341" y="1400" type="line"/>
    </contour>
  </outline>
</glyph>
<glyph name="Q" format="2">
  <advance width="1658"/>
  <unicode hex="0051"/>
  <outline>
    <contour>
      <point x="1135" y="0" type="line"/>
      <point x="1528" y="0" type="line"/>
      <point x="1375" y="208" type="line"/>
      <point x="1533" y="356"/>
      <point x="1631" y="570"/>
      <point x="1631" y="784" type="curve" smooth="yes"/>
      <point x="1631" y="1154"/>
      <point x="1339" y="1430"/>
      <point x="935" y="1430" type="curve" smooth="yes"/>
      <point x="481" y="1430"/>
      <point x="105" y="1068"/>
      <point x="105" y="616" type="curve" smooth="yes"/>
      <point x="105" y="240"/>
      <point x="387" y="-30"/>
      <point x="783" y="-30" type="curve" smooth="yes"/>
      <point x="893" y="-30"/>
      <point x="1003" y="-6"/>
      <point x="1109" y="36" type="curve"/>
    </contour>
    <contour>
      <point x="821" y="306" type="curve" smooth="yes"/>
      <point x="631" y="306"/>
      <point x="507" y="442"/>
      <point x="507" y="636" type="curve" smooth="yes"/>
      <point x="507" y="882"/>
      <point x="667" y="1078"/>
      <point x="905" y="1078" type="curve" smooth="yes"/>
      <point x="1103" y="1078"/>
      <point x="1243" y="950"/>
      <point x="1243" y="754" type="curve" smooth="yes"/>
      <point x="1243" y="664"/>
      <point x="1213" y="562"/>
      <point x="1163" y="490" type="curve"/>
      <point x="1079" y="606" type="line"/>
      <point x="723" y="606" type="line"/>
      <point x="923" y="318" type="line"/>
      <point x="889" y="310"/>
      <point x="853" y="306"/>
    </contour>
  </outline>
</glyph>
<glyph name="T" format="2">
  <advance width="1182"/>
  <unicode hex="0054"/>
  <anchor x="619" y="644" name="bar"/>
  <anchor x="481" y="0" name="bottom"/>
  <anchor x="777" y="1400" name="top"/>
  <outline>
    <contour>
      <point x="279" y="0" type="line"/>
      <point x="685" y="0" type="line"/>
      <point x="903" y="1032" type="line"/>
      <point x="1263" y="1032" type="line"/>
      <point x="1341" y="1400" type="line"/>
      <point x="255" y="1400" type="line"/>
      <point x="97" y="1032" type="line"/>
      <point x="497" y="1032" type="line"/>
    </contour>
  </outline>
</glyph>
<glyph name="Y" format="2">
  <advance width="1332"/>
  <unicode hex="0059"/>
  <anchor x="549" y="0" name="bottom"/>
  <anchor x="843" y="1400" name="top"/>
  <anchor x="125" y="1400" name="topleft"/>
  <outline>
    <contour>
      <point x="345" y="0" type="line"/>
      <point x="751" y="0" type="line"/>
      <point x="871" y="564" type="line"/>
      <point x="1541" y="1400" type="line"/>
      <point x="1079" y="1400" type="line"/>
      <point x="743" y="964" type="line"/>
      <point x="597" y="1400" type="line"/>
      <point x="165" y="1400" type="line"/>
      <point x="465" y="572" type="line"/>
    </contour>
  </outline>
</glyph>
<glyph name="asciicircum" format="2">
  <advance width="1296"/>
  <unicode hex="005E"/>
  <outline>
    <contour>
      <point x="186" y="782" type="line"/>
      <point x="538" y="782" type="line"/>
      <point x="796" y="1128" type="line"/>
      <point x="900" y="782" type="line"/>
      <point x="1222" y="782" type="line"/>
      <point x="1022" y="1400" type="line"/>
      <point x="660" y="1400" type="line"/>
    </contour>
  </outline>
</glyph>
<glyph name="a" format="2">
  <advance width="1213"/>
  <unicode hex="0061"/>
  <anchor x="471" y="0" name="bottom"/>
  <anchor x="989" y="0" name="ogonek"/>
  <anchor x="689" y="1040" name="top"/>
  <outline>
    <contour>
      <point x="349" y="-28" type="curve" smooth="yes"/>
      <point x="487" y="-28"/>
      <point x="603" y="20"/>
      <point x="667" y="102" type="curve"/>
      <point x="647" y="0" type="line"/>
      <point x="989" y="0" type="line"/>
      <point x="1105" y="562" type="line" smooth="yes"/>
      <point x="1169" y="874"/>
      <point x="1003" y="1080"/>
      <point x="629" y="1080" type="curve" smooth="yes"/>
      <point x="496" y="1080"/>
      <point x="374" y="1058"/>
      <point x="268" y="1011" type="curve"/>
      <point x="209" y="702" type="line"/>
      <point x="287" y="750"/>
      <point x="417" y="782"/>
      <point x="531" y="782" type="curve" smooth="yes"/>
      <point x="715" y="782"/>
      <point x="759" y="714"/>
      <point x="737" y="614" type="curve" smooth="yes"/>
      <point x="691" y="402" type="line" smooth="yes"/>
      <point x="669" y="304"/>
      <point x="597" y="250"/>
      <point x="493" y="250" type="curve" smooth="yes"/>
      <point x="423" y="250"/>
      <point x="381" y="276"/>
      <point x="381" y="322" type="curve" smooth="yes"/>
      <point x="381" y="414"/>
      <point x="549" y="452"/>
      <point x="743" y="422" type="curve"/>
      <point x="793" y="648" type="line"/>
      <point x="303" y="690"/>
      <point x="11" y="558"/>
      <point x="11" y="286" type="curve" smooth="yes"/>
      <point x="11" y="94"/>
      <point x="143" y="-28"/>
    </contour>
  </outline>
</glyph>
<glyph name="c" format="2">
  <advance width="1042"/>
  <unicode hex="0063"/>
  <anchor x="513" y="0" name="bottom"/>
  <anchor x="693" y="1040" name="top"/>
  <outline>
    <contour>
      <point x="587" y="-30" type="curve" smooth="yes"/>
      <point x="679" y="-30"/>
      <point x="777" y="-12"/>
      <point x="867" y="20" type="curve"/>
      <point x="949" y="400" type="line"/>
      <point x="851" y="340"/>
      <point x="759" y="310"/>
      <point x="661" y="310" type="curve" smooth="yes"/>
      <point x="523" y="310"/>
      <point x="445" y="376"/>
      <point x="445" y="493" type="curve" smooth="yes"/>
      <point x="445" y="628"/>
      <point x="535" y="730"/>
      <point x="701" y="730" type="curve" smooth="yes"/>
      <point x="793" y="730"/>
      <point x="887" y="702"/>
      <point x="957" y="632" type="curve"/>
      <point x="1033" y="988" type="line"/>
      <point x="939" y="1042"/>
      <point x="825" y="1070"/>
      <point x="699" y="1070" type="curve" smooth="yes"/>
      <point x="347" y="1070"/>
      <point x="47" y="802"/>
      <point x="47" y="460" type="curve" smooth="yes"/>
      <point x="47" y="178"/>
      <point x="267" y="-30"/>
    </contour>
  </outline>
</glyph>
<glyph name="d" format="2">
  <advance width="1366"/>
  <unicode hex="0064"/>
  <anchor x="1151" y="1224" name="bar"/>
  <anchor x="1435" y="1440" name="caron"/>
  <outline>
    <contour>
      <point x="511" y="-30" type="curve" smooth="yes"/>
      <point x="683" y="-30"/>
      <point x="815" y="48"/>
      <point x="883" y="176" type="curve"/>
      <point x="849" y="282" type="line"/>
      <point x="789" y="0" type="line"/>
      <point x="1129" y="0" type="line"/>
      <point x="1443" y="1480" type="line"/>
      <point x="1005" y="1294" type="line"/>
      <point x="903" y="808" type="line"/>
      <point x="1011" y="880" type="line"/>
      <point x="931" y="1012"/>
      <point x="789" y="1070"/>
      <point x="635" y="1070" type="curve" smooth="yes"/>
      <point x="295" y="1070"/>
      <point x="45" y="780"/>
      <point x="45" y="436" type="curve" smooth="yes"/>
      <point x="45" y="148"/>
      <point x="239" y="-30"/>
    </contour>
    <contour>
      <point x="619" y="310" type="curve" smooth="yes"/>
      <point x="515" y="310"/>
      <point x="437" y="378"/>
      <point x="437" y="488" type="curve" smooth="yes"/>
      <point x="437" y="616"/>
      <point x="527" y="730"/>
      <point x="663" y="730" type="curve" smooth="yes"/>
      <point x="769" y="730"/>
      <point x="845" y="660"/>
      <point x="845" y="550" type="curve" smooth="yes"/>
      <point x="845" y="424"/>
      <point x="755" y="310"/>
    </contour>
  </outline>
</glyph>
<glyph name="f" format="2">
  <advance width="878"/>
  <unicode hex="0066"/>
  <outline>
    <contour>
      <point x="91" y="0" type="line"/>
      <point x="491" y="0" type="line"/>
      <point x="645" y="728" type="line"/>
      <point x="887" y="728" type="line"/>
      <point x="955" y="1040" type="line"/>
      <point x="711" y="1040" type="line"/>
      <point x="717" y="1064" type="line" smooth="yes"/>
      <point x="729" y="1116"/>
      <point x="767" y="1144"/>
      <point x="827" y="1144" type="curve" smooth="yes"/>
      <point x="871" y="1144"/>
      <point x="923" y="1138"/>
      <point x="971" y="1112" type="curve"/>
      <point x="1033" y="1408" type="line"/>
      <point x="949" y="1456"/>
      <point x="857" y="1470"/>
      <point x="767" y="1470" type="curve" smooth="yes"/>
      <point x="521" y="1470"/>
      <point x="373" y="1328"/>
      <point x="321" y="1086" type="curve" smooth="yes"/>
    </contour>
    <contour>
      <point x="41" y="728" type="line"/>
      <point x="285" y="728" type="line"/>
      <point x="353" y="1060" type="line"/>
      <point x="57" y="808" type="line"/>
    </contour>
  </outline>
</glyph>
<glyph name="g" format="2">
  <advance width="1240"/>
  <unicode hex="0067"/>
  <anchor x="651" y="1040" name="top"/>
  <outline>
    <contour>
      <point x="439" y="-450" type="curve" smooth="yes"/>
      <point x="751" y="-450"/>
      <point x="1045" y="-334"/>
      <point x="1045" y="-94" type="curve" smooth="yes"/>
      <point x="1045" y="50"/>
      <point x="915" y="140"/>
      <point x="671" y="188" type="curve" smooth="yes"/>
      <point x="497" y="224" type="line" smooth="yes"/>
      <point x="439" y="236"/>
      <point x="399" y="246"/>
      <point x="399" y="276" type="curve" smooth="yes"/>
      <point x="399" y="312"/>
      <point x="445" y="330"/>
      <point x="551" y="328" type="curve"/>
      <point x="513" y="470" type="line"/>
      <point x="309" y="478"/>
      <point x="69" y="392"/>
      <point x="69" y="222" type="curve" smooth="yes"/>
      <point x="69" y="152"/>
      <point x="99" y="104"/>
      <point x="149" y="70" type="curve"/>
      <point x="-13" y="52"/>
      <point x="-127" y="-44"/>
      <point x="-127" y="-160" type="curve" smooth="yes"/>
      <point x="-127" y="-370"/>
      <point x="181" y="-450"/>
    </contour>
    <contour>
      <point x="469" y="-216" type="curve" smooth="yes"/>
      <point x="369" y="-216"/>
      <point x="223" y="-184"/>
      <point x="223" y="-110" type="curve" smooth="yes"/>
      <point x="223" y="-62"/>
      <point x="285" y="-40"/>
      <point x="361" y="-42" type="curve"/>
      <point x="559" y="-78" type="line" smooth="yes"/>
      <point x="625" y="-90"/>
      <point x="673" y="-104"/>
      <point x="673" y="-144" type="curve" smooth="yes"/>
      <point x="673" y="-200"/>
      <point x="577" y="-216"/>
    </contour>
    <contour>
      <point x="581" y="320" type="curve" smooth="yes"/>
      <point x="853" y="320"/>
      <point x="1079" y="486"/>
      <point x="1079" y="718" type="curve" smooth="yes"/>
      <point x="1079" y="918"/>
      <point x="899" y="1070"/>
      <point x="615" y="1070" type="curve" smooth="yes"/>
      <point x="343" y="1070"/>
      <point x="119" y="908"/>
      <point x="119" y="672" type="curve" smooth="yes"/>
      <point x="119" y="474"/>
      <point x="299" y="320"/>
    </contour>
    <contour>
      <point x="595" y="580" type="curve" smooth="yes"/>
      <point x="509" y="580"/>
      <point x="447" y="626"/>
      <point x="447" y="692" type="curve" smooth="yes"/>
      <point x="447" y="760"/>
      <point x="519" y="812"/>
      <point x="605" y="812" type="curve" smooth="yes"/>
      <point x="687" y="812"/>
      <point x="749" y="766"/>
      <point x="749" y="704" type="curve" smooth="yes"/>
      <point x="749" y="634"/>
      <point x="681" y="580"/>
    </contour>
    <contour>
      <point x="763" y="728" type="line"/>
      <point x="1267" y="728" type="line"/>
      <point x="1347" y="1120" type="line"/>
      <point x="781" y="828" type="line"/>
    </contour>
  </outline>
</glyph>
<glyph name="h" format="2">
  <advance width="1362"/>
  <unicode hex="0068"/>
  <anchor x="553" y="1224" name="bar"/>
  <anchor x="523" y="1440" name="top"/>
  <outline>
    <contour>
      <point x="15" y="0" type="line"/>
      <point x="415" y="0" type="line"/>
      <point x="529" y="534" type="line" smooth="yes"/>
      <point x="555" y="650"/>
      <point x="619" y="710"/>
      <point x="717" y="710" type="curve" smooth="yes"/>
      <point x="831" y="710"/>
      <point x="873" y="644"/>
      <point x="849" y="534" type="curve" smooth="yes"/>
      <point x="735" y="0" type="line"/>
      <point x="1135" y="0" type="line"/>
      <point x="1273" y="646" type="line" smooth="yes"/>
      <point x="1321" y="894"/>
      <point x="1169" y="1070"/>
      <point x="925" y="1070" type="curve" smooth="yes"/>
      <point x="783" y="1070"/>
      <point x="661" y="1004"/>
      <point x="563" y="914" type="curve"/>
      <point x="585" y="794" type="line"/>
      <point x="731" y="1480" type="line"/>
      <point x="291" y="1294" type="line"/>
    </contour>
  </outline>
</glyph>
<glyph name="l" format="2">
  <advance width="653"/>
  <unicode hex="006C"/>
  <anchor x="215" y="0" name="bottom"/>
  <anchor x="723" y="1440" name="caron"/>
  <anchor x="523" y="1440" name="top"/>
  <outline>
    <contour>
      <point x="15" y="0" type="line"/>
      <point x="415" y="0" type="line"/>
      <point x="731" y="1480" type="line"/>
      <point x="291" y="1294" type="line"/>
    </contour>
  </outline>
</glyph>
<glyph name="m" format="2">
  <advance width="2022"/>
  <unicode hex="006D"/>
  <outline>
    <contour>
      <point x="15" y="0" type="line"/>
      <point x="415" y="0" type="line"/>
      <point x="539" y="586" type="line" smooth="yes"/>
      <point x="555" y="662"/>
      <point x="624" y="710"/>
      <point x="710" y="710" type="curve" smooth="yes"/>
      <point x="802" y="710"/>
      <point x="843" y="656"/>
      <point x="821" y="548" type="curve" smooth="yes"/>
      <point x="705" y="0" type="line"/>
      <point x="1105" y="0" type="line"/>
      <point x="1229" y="586" type="line" smooth="yes"/>
      <point x="1245" y="662"/>
      <point x="1314" y="710"/>
      <point x="1400" y="710" type="curve" smooth="yes"/>
      <point x="1492" y="710"/>
      <point x="1533" y="656"/>
      <point x="1511" y="548" type="curve" smooth="yes"/>
      <point x="1395" y="0" type="line"/>
      <point x="1795" y="0" type="line"/>
      <point x="1935" y="662" type="line" smooth="yes"/>
      <point x="1991" y="926"/>
      <point x="1863" y="1070"/>
      <point x="1623" y="1070" type="curve" smooth="yes"/>
      <point x="1459" y="1070"/>
      <point x="1305" y="1004"/>
      <point x="1223" y="870" type="curve"/>
      <point x="1207" y="990"/>
      <point x="1101" y="1070"/>
      <point x="955" y="1070" type="curve" smooth="yes"/>
      <point x="819" y="1070"/>
      <point x="663" y="996"/>
      <point x="597" y="862" type="curve"/>
      <point x="649" y="1100" type="line"/>
      <point x="211" y="914" type="line"/>
    </contour>
  </outline>
</glyph>
<glyph name="w" format="2">
  <advance width="1714"/>
  <unicode hex="0077"/>
  <anchor x="961" y="1034" name="top"/>
  <outline>
    <contour>
      <point x="197" y="0" type="line"/>
      <point x="591" y="0" type="line"/>
      <point x="867" y="546" type="line"/>
      <point x="897" y="0" type="line"/>
      <point x="1287" y="0" type="line"/>
      <point x="1819" y="1040" type="line"/>
      <point x="1430" y="1040" type="line"/>
      <point x="1182" y="472" type="line"/>
      <point x="1146" y="1040" type="line"/>
      <point x="788" y="1040" type="line"/>
      <point x="502" y="466" type="line"/>
      <point x="490" y="1040" type="line"/>
      <point x="117" y="1040" type="line"/>
    </contour>
  </outline>
</glyph>
<glyph name="sterling" format="2">
  <advance width="1296"/>
  <unicode hex="00A3"/>
  <outline>
    <contour>
      <point x="10" y="0" type="line"/>
      <point x="1078" y="0" type="line"/>
      <point x="1222" y="298" type="line"/>
      <point x="606" y="298" type="line"/>
      <point x="672" y="380"/>
      <point x="700" y="480"/>
      <point x="700" y="548" type="curve" smooth="yes"/>
      <point x="700" y="660"/>
      <point x="702" y="820"/>
      <point x="700" y="918" type="curve" smooth="yes"/>
      <point x="700" y="1034"/>
      <point x="774" y="1124"/>
      <point x="904" y="1124" type="curve" smooth="yes"/>
      <point x="1006" y="1124"/>
      <point x="1108" y="1098"/>
      <point x="1212" y="1016" type="curve"/>
      <point x="1278" y="1324" type="line"/>
      <point x="1192" y="1380"/>
      <point x="1060" y="1426"/>
      <point x="906" y="1426" type="curve" smooth="yes"/>
      <point x="574" y="1426"/>
      <point x="334" y="1228"/>
      <point x="334" y="940" type="curve" smooth="yes"/>
      <point x="334" y="814"/>
      <point x="368" y="606"/>
      <point x="368" y="524" type="curve" smooth="yes"/>
      <point x="368" y="344"/>
      <point x="250" y="308"/>
      <point x="70" y="292" type="curve"/>
    </contour>
    <contour>
      <point x="110" y="560" type="line"/>
      <point x="1026" y="560" type="line"/>
      <point x="1078" y="810" type="line"/>
      <point x="162" y="810" type="line"/>
    </contour>
  </outline>
</glyph>
<glyph name="yen" format="2">
  <advance width="1296"/>
  <unicode hex="00A5"/>
  <outline>
    <contour>
      <point x="338" y="0" type="line"/>
      <point x="706" y="0" type="line"/>
      <point x="758" y="246" type="line"/>
      <point x="1116" y="246" type="line"/>
      <point x="1164" y="472" type="line"/>
      <point x="806" y="472" type="line"/>
      <point x="830" y="584" type="line"/>
      <point x="1188" y="584" type="line"/>
      <point x="1236" y="810" type="line"/>
      <point x="980" y="810" type="line"/>
      <point x="1498" y="1400" type="line"/>
      <point x="1086" y="1400" type="line"/>
      <point x="714" y="934" type="line"/>
      <point x="560" y="1400" type="line"/>
      <point x="174" y="1400" type="line"/>
      <point x="416" y="810" type="line"/>
      <point x="154" y="810" type="line"/>
      <point x="106" y="584" type="line"/>
      <point x="462" y="584" type="line"/>
      <point x="438" y="472" type="line"/>
      <point x="82" y="472" type="line"/>
      <point x="34" y="246" type="line"/>
      <point x="390" y="246" type="line"/>
    </contour>
  </outline>
</glyph>
<glyph name="section" format="2">
  <advance width="1380"/>
  <unicode hex="00A7"/>
  <outline>
    <contour>
      <point x="546" y="-450" type="curve" smooth="yes"/>
      <point x="846" y="-450"/>
      <point x="1098" y="-288"/>
      <point x="1098" y="-8" type="curve" smooth="yes"/>
      <point x="1098" y="168"/>
      <point x="980" y="270"/>
      <point x="730" y="338" type="curve" smooth="yes"/>
      <point x="582" y="378"/>
      <point x="494" y="420"/>
      <point x="494" y="494" type="curve" smooth="yes"/>
      <point x="494" y="602"/>
      <point x="614" y="658"/>
      <point x="748" y="652" type="curve"/>
      <point x="780" y="858" type="line"/>
      <point x="434" y="858"/>
      <point x="142" y="726"/>
      <point x="142" y="444" type="curve" smooth="yes"/>
      <point x="142" y="258"/>
      <point x="300" y="166"/>
      <point x="594" y="86" type="curve" smooth="yes"/>
      <point x="728" y="50"/>
      <point x="770" y="16"/>
      <point x="770" y="-36" type="curve" smooth="yes"/>
      <point x="770" y="-104"/>
      <point x="686" y="-142"/>
      <point x="586" y="-142" type="curve" smooth="yes"/>
      <point x="432" y="-142"/>
      <point x="264" y="-84"/>
      <point x="150" y="-2" type="curve"/>
      <point x="82" y="-322" type="line"/>
      <point x="200" y="-398"/>
      <point x="366" y="-450"/>
    </contour>
    <contour>
      <point x="650" y="128" type="line"/>
      <point x="994" y="128"/>
      <point x="1288" y="256"/>
      <point x="1288" y="544" type="curve" smooth="yes"/>
      <point x="1288" y="722"/>
      <point x="1134" y="820"/>
      <point x="858" y="894" type="curve" smooth="yes"/>
      <point x="706" y="936"/>
      <point x="662" y="964"/>
      <point x="662" y="1016" type="curve" smooth="yes"/>
      <point x="662" y="1092"/>
      <point x="744" y="1122"/>
      <point x="834" y="1122" type="curve" smooth="yes"/>
      <point x="966" y="1122"/>
      <point x="1142" y="1068"/>
      <point x="1250" y="982" type="curve"/>
      <point x="1318" y="1302" type="line"/>
      <point x="1198" y="1384"/>
      <point x="1034" y="1430"/>
      <point x="872" y="1430" type="curve" smooth="yes"/>
      <point x="576" y="1430"/>
      <point x="336" y="1268"/>
      <point x="336" y="990" type="curve" smooth="yes"/>
      <point x="336" y="814"/>
      <point x="452" y="710"/>
      <point x="692" y="650" type="curve" smooth="yes"/>
      <point x="858" y="608"/>
      <point x="938" y="566"/>
      <point x="938" y="494" type="curve" smooth="yes"/>
      <point x="938" y="380"/>
      <point x="814" y="324"/>
      <point x="680" y="332" type="curve"/>
    </contour>
  </outline>
</glyph>
<glyph name="ordfeminine" format="2">
  <advance width="860"/>
  <unicode hex="00AA"/>
  <anchor x="465" y="722" name="bottom"/>
  <anchor x="809" y="722" name="ogonek"/>
  <anchor x="607" y="1398" name="top"/>
  <outline>
    <contour>
      <point x="385" y="704" type="curve" smooth="yes"/>
      <point x="477" y="704"/>
      <point x="555" y="734"/>
      <point x="599" y="788" type="curve"/>
      <point x="587" y="722" type="line"/>
      <point x="809" y="722" type="line"/>
      <point x="885" y="1088" type="line" smooth="yes"/>
      <point x="927" y="1290"/>
      <point x="827" y="1424"/>
      <point x="567" y="1424" type="curve" smooth="yes"/>
      <point x="423" y="1424"/>
      <point x="311" y="1384"/>
      <point x="223" y="1300" type="curve"/>
      <point x="343" y="1462" type="line"/>
      <point x="289" y="1178" type="line"/>
      <point x="343" y="1210"/>
      <point x="431" y="1230"/>
      <point x="505" y="1230" type="curve" smooth="yes"/>
      <point x="627" y="1230"/>
      <point x="659" y="1186"/>
      <point x="645" y="1122" type="curve" smooth="yes"/>
      <point x="615" y="984" type="line" smooth="yes"/>
      <point x="601" y="920"/>
      <point x="549" y="884"/>
      <point x="477" y="884" type="curve" smooth="yes"/>
      <point x="429" y="884"/>
      <point x="399" y="902"/>
      <point x="399" y="932" type="curve" smooth="yes"/>
      <point x="399" y="986"/>
      <point x="517" y="1016"/>
      <point x="651" y="996" type="curve"/>
      <point x="681" y="1144" type="line"/>
      <point x="357" y="1170"/>
      <point x="159" y="1088"/>
      <point x="159" y="910" type="curve" smooth="yes"/>
      <point x="159" y="784"/>
      <point x="249" y="704"/>
    </contour>
  </outline>
</glyph>
<glyph name="micro" format="2">
  <advance width="1337"/>
  <unicode hex="00B5"/>
  <outline>
    <contour>
      <point x="-74" y="-420" type="line"/>
      <point x="286" y="-420" type="line"/>
      <point x="358" y="56" type="line"/>
      <point x="392" y="12"/>
      <point x="450" y="-30"/>
      <point x="558" y="-30" type="curve" smooth="yes"/>
      <point x="664" y="-30"/>
      <point x="730" y="28"/>
      <point x="778" y="88" type="curve"/>
      <point x="760" y="0" type="line"/>
      <point x="1100" y="0" type="line"/>
      <point x="1334" y="1100" type="line"/>
      <point x="896" y="914" type="line"/>
      <point x="802" y="482" type="line" smooth="yes"/>
      <point x="780" y="384"/>
      <point x="714" y="330"/>
      <point x="630" y="330" type="curve" smooth="yes"/>
      <point x="536" y="330"/>
      <point x="500" y="396"/>
      <point x="518" y="482" type="curve" smooth="yes"/>
      <point x="650" y="1100" type="line"/>
      <point x="212" y="914" type="line"/>
    </contour>
  </outline>
</glyph>
<glyph name="onesuperior" format="2">
  <advance width="672"/>
  <unicode hex="00B9"/>
  <outline>
    <contour>
      <point x="356" y="722" type="line"/>
      <point x="594" y="722" type="line"/>
      <point x="792" y="1652" type="line"/>
      <point x="774" y="1652" type="line"/>
      <point x="330" y="1516" type="line"/>
      <point x="280" y="1280" type="line"/>
      <point x="490" y="1340" type="line"/>
    </contour>
  </outline>
</glyph>
<glyph name="germandbls" format="2">
  <advance width="1467"/>
  <unicode hex="00DF"/>
  <outline>
    <contour>
      <point x="881" y="-32" type="curve" smooth="yes"/>
      <point x="1141" y="-32"/>
      <point x="1381" y="136"/>
      <point x="1381" y="374" type="curve" smooth="yes"/>
      <point x="1381" y="490"/>
      <point x="1309" y="570"/>
      <point x="1253" y="636" type="curve" smooth="yes"/>
      <point x="1217" y="678"/>
      <point x="1185" y="712"/>
      <point x="1185" y="746" type="curve" smooth="yes"/>
      <point x="1185" y="780"/>
      <point x="1213" y="816"/>
      <point x="1247" y="862" type="curve" smooth="yes"/>
      <point x="1297" y="928"/>
      <point x="1369" y="1018"/>
      <point x="1369" y="1140" type="curve" smooth="yes"/>
      <point x="1369" y="1332"/>
      <point x="1165" y="1470"/>
      <point x="845" y="1470" type="curve" smooth="yes"/>
      <point x="499" y="1470"/>
      <point x="287" y="1280"/>
      <point x="217" y="946" type="curve" smooth="yes"/>
      <point x="15" y="0" type="line"/>
      <point x="415" y="0" type="line"/>
      <point x="613" y="924" type="line" smooth="yes"/>
      <point x="643" y="1066"/>
      <point x="705" y="1144"/>
      <point x="821" y="1144" type="curve" smooth="yes"/>
      <point x="909" y="1144"/>
      <point x="969" y="1104"/>
      <point x="969" y="1038" type="curve" smooth="yes"/>
      <point x="969" y="990"/>
      <point x="927" y="938"/>
      <point x="881" y="884" type="curve" smooth="yes"/>
      <point x="829" y="824"/>
      <point x="781" y="754"/>
      <point x="781" y="688" type="curve" smooth="yes"/>
      <point x="781" y="608"/>
      <point x="839" y="550"/>
      <point x="889" y="498" type="curve" smooth="yes"/>
      <point x="935" y="450"/>
      <point x="975" y="408"/>
      <point x="967" y="360" type="curve" smooth="yes"/>
      <point x="957" y="300"/>
      <point x="901" y="264"/>
      <point x="823" y="264" type="curve" smooth="yes"/>
      <point x="751" y="264"/>
      <point x="681" y="286"/>
      <point x="601" y="332" type="curve"/>
      <point x="537" y="20" type="line"/>
      <point x="655" y="-18"/>
      <point x="765" y="-32"/>
    </contour>
  </outline>
</glyph>
<glyph name="eth" format="2">
  <advance width="1266"/>
  <unicode hex="00F0"/>
  <outline>
    <contour>
      <point x="567" y="-30" type="curve" smooth="yes"/>
      <point x="931" y="-30"/>
      <point x="1223" y="262"/>
      <point x="1223" y="638" type="curve" smooth="yes"/>
      <point x="1223" y="956"/>
      <point x="1017" y="1244"/>
      <point x="747" y="1440" type="curve"/>
      <point x="291" y="1440" type="line"/>
      <point x="553" y="1274"/>
      <point x="751" y="1028"/>
      <point x="817" y="816" type="curve"/>
      <point x="899" y="828" type="line"/>
      <point x="807" y="918"/>
      <point x="683" y="930"/>
      <point x="605" y="930" type="curve" smooth="yes"/>
      <point x="305" y="930"/>
      <point x="35" y="708"/>
      <point x="35" y="414" type="curve" smooth="yes"/>
      <point x="35" y="164"/>
      <point x="245" y="-30"/>
    </contour>
    <contour>
      <point x="593" y="300" type="curve" smooth="yes"/>
      <point x="493" y="300"/>
      <point x="429" y="366"/>
      <point x="429" y="458" type="curve" smooth="yes"/>
      <point x="429" y="578"/>
      <point x="519" y="660"/>
      <point x="629" y="660" type="curve" smooth="yes"/>
      <point x="729" y="660"/>
      <point x="795" y="596"/>
      <point x="795" y="504" type="curve" smooth="yes"/>
      <point x="795" y="398"/>
      <point x="715" y="300"/>
    </contour>
    <contour>
      <point x="285" y="932" type="line"/>
      <point x="703" y="1068" type="line"/>
      <point x="703" y="1082" type="line"/>
      <point x="1101" y="1214" type="line"/>
      <point x="1149" y="1438" type="line"/>
      <point x="735" y="1300" type="line"/>
      <point x="731" y="1286" type="line"/>
      <point x="335" y="1158" type="line"/>
    </contour>
  </outline>
</glyph>
<glyph name="oslash" format="2">
  <advance width="1286"/>
  <unicode hex="00F8"/>
  <anchor x="751" y="1040" name="top"/>
  <outline>
    <contour>
      <point x="281" y="0" type="line"/>
      <point x="315" y="32" type="line"/>
      <point x="389" y="-10"/>
      <point x="485" y="-30"/>
      <point x="589" y="-30" type="curve" smooth="yes"/>
      <point x="931" y="-30"/>
      <point x="1235" y="242"/>
      <point x="1235" y="572" type="curve" smooth="yes"/>
      <point x="1235" y="674"/>
      <point x="1207" y="770"/>
      <point x="1153" y="848" type="curve"/>
      <point x="1354" y="1040" type="line"/>
      <point x="998" y="1040" type="line"/>
      <point x="965" y="1008" type="line"/>
      <point x="891" y="1050"/>
      <point x="797" y="1070"/>
      <point x="693" y="1070" type="curve" smooth="yes"/>
      <point x="351" y="1070"/>
      <point x="47" y="802"/>
      <point x="47" y="466" type="curve" smooth="yes"/>
      <point x="47" y="366"/>
      <point x="75" y="272"/>
      <point x="127" y="194" type="curve"/>
      <point x="-76" y="0" type="line"/>
    </contour>
    <contour>
      <point x="411" y="450" type="line"/>
      <point x="409" y="458"/>
      <point x="409" y="468"/>
      <point x="409" y="476" type="curve" smooth="yes"/>
      <point x="409" y="628"/>
      <point x="517" y="758"/>
      <point x="679" y="758" type="curve" smooth="yes"/>
      <point x="691" y="758"/>
      <point x="709" y="756"/>
      <point x="723" y="752" type="curve"/>
    </contour>
    <contour>
      <point x="587" y="282" type="curve" smooth="yes"/>
      <point x="575" y="282"/>
      <point x="563" y="284"/>
      <point x="551" y="286" type="curve"/>
      <point x="873" y="594" type="line"/>
      <point x="875" y="588"/>
      <point x="875" y="580"/>
      <point x="875" y="574" type="curve" smooth="yes"/>
      <point x="875" y="406"/>
      <point x="753" y="282"/>
    </contour>
  </outline>
</glyph>
<glyph name="aogonek" format="2">
  <advance width="1213"/>
  <unicode hex="0105"/>
  <anchor x="471" y="0" name="bottom"/>
  <anchor x="989" y="0" name="ogonek"/>
  <anchor x="689" y="1040" name="top"/>
  <outline>
    <contour>
      <point x="697" y="-449" type="curve" smooth="yes"/>
      <point x="764" y="-449"/>
      <point x="825" y="-437"/>
      <point x="883" y="-407" type="curve"/>
      <point x="932" y="-174" type="line"/>
      <point x="893" y="-213"/>
      <point x="842" y="-229"/>
      <point x="791" y="-229" type="curve" smooth="yes"/>
      <point x="748" y="-229"/>
      <point x="714" y="-205"/>
      <point x="714" y="-158" type="curve" smooth="yes"/>
      <point x="714" y="-32"/>
      <point x="862" y="-7"/>
      <point x="989" y="0" type="curve"/>
      <point x="989.0" y="98.5" type="line"/>
      <point x="726.0" y="87.5"/>
      <point x="478.0" y="-23.5"/>
      <point x="478" y="-240" type="curve" smooth="yes"/>
      <point x="478" y="-367"/>
      <point x="575" y="-449"/>
    </contour>
    <component base="a"/>
  </outline>
</glyph>
<glyph name="eogonek" format="2">
  <advance width="1232"/>
  <unicode hex="0119"/>
  <anchor x="520" y="0" name="bottom"/>
  <anchor x="991" y="0" name="ogonek"/>
  <anchor x="708" y="1040" name="top"/>
  <outline>
    <contour>
      <point x="630" y="-30" type="curve" smooth="yes"/>
      <point x="740" y="-30"/>
      <point x="870" y="-8"/>
      <point x="970" y="26" type="curve"/>
      <point x="1038" y="342" type="line"/>
      <point x="920" y="292"/>
      <point x="810" y="270"/>
      <point x="686" y="270" type="curve" smooth="yes"/>
      <point x="540" y="270"/>
      <point x="402" y="312"/>
      <point x="400" y="408" type="curve"/>
      <point x="1156" y="408" type="line"/>
      <point x="1278" y="774"/>
      <point x="1072" y="1070"/>
      <point x="674" y="1070" type="curve" smooth="yes"/>
      <point x="316" y="1070"/>
      <point x="50" y="816"/>
      <point x="50" y="460" type="curve" smooth="yes"/>
      <point x="50" y="172"/>
      <point x="274" y="-30"/>
    </contour>
    <contour>
      <point x="468" y="668" type="line"/>
      <point x="480" y="742"/>
      <point x="554" y="790"/>
      <point x="652" y="790" type="curve" smooth="yes"/>
      <point x="748" y="790"/>
      <point x="816" y="750"/>
      <point x="816" y="668" type="curve"/>
    </contour>
    <contour>
      <point x="699" y="-449" type="curve" smooth="yes"/>
      <point x="766" y="-449"/>
      <point x="827" y="-437"/>
      <point x="885" y="-407" type="curve"/>
      <point x="934" y="-174" type="line"/>
      <point x="895" y="-213"/>
      <point x="844" y="-229"/>
      <point x="793" y="-229" type="curve" smooth="yes"/>
      <point x="750" y="-229"/>
      <point x="716" y="-205"/>
      <point x="716" y="-158" type="curve" smooth="yes"/>
      <point x="716" y="-35"/>
      <point x="864" y="-5"/>
      <point x="903" y="6" type="curve"/>
      <point x="932" y="112" type="line"/>
      <point x="695" y="79"/>
      <point x="480" y="-34"/>
      <point x="480" y="-235" type="curve" smooth="yes"/>
      <point x="480" y="-365"/>
      <point x="577" y="-449"/>
    </contour>
  </outline>
</glyph>
<glyph name="Lslash" format="2">
  <advance width="1186"/>
  <unicode hex="0141"/>
  <anchor x="553" y="0" name="bottom"/>
  <anchor x="795" y="1440" name="caron"/>
  <anchor x="583" y="1400" name="top"/>
  <outline>
    <contour>
      <point x="-55" y="356" type="line"/>
      <point x="377" y="538" type="line"/>
      <point x="369" y="498" type="line"/>
      <point x="1087" y="804" type="line"/>
      <point x="1161" y="1152" type="line"/>
      <point x="443" y="846" type="line"/>
      <point x="451" y="886" type="line"/>
      <point x="19" y="704" type="line"/>
    </contour>
    <component base="L" xOffset="40"/>
  </outline>
</glyph>
<glyph name="lslash" format="2">
  <advance width="810"/>
  <unicode hex="0142"/>
  <anchor x="291" y="0" name="bottom"/>
  <anchor x="799" y="1440" name="caron"/>
  <anchor x="599" y="1440" name="top"/>
  <outline>
    <contour>
      <point x="-25" y="340" type="line"/>
      <point x="419" y="530" type="line"/>
      <point x="413" y="490" type="line"/>
      <point x="827" y="660" type="line"/>
      <point x="903" y="1020" type="line"/>
      <point x="461" y="838" type="line"/>
      <point x="465" y="878" type="line"/>
      <point x="51" y="700" type="line"/>
    </contour>
    <component base="l" xOffset="76"/>
  </outline>
</glyph>
<glyph name="OE" format="2">
  <advance width="2309"/>
  <unicode hex="0152"/>
  <outline>
    <contour>
      <point x="736" y="-30" type="curve" smooth="yes"/>
      <point x="956" y="-30"/>
      <point x="1124" y="48"/>
      <point x="1224" y="176" type="curve"/>
      <point x="1192" y="246" type="line"/>
      <point x="1142" y="0" type="line"/>
      <point x="2058" y="0" type="line"/>
      <point x="2212" y="352" type="line"/>
      <point x="1530" y="352" type="line"/>
      <point x="1572" y="552" type="line"/>
      <point x="2092" y="552" type="line"/>
      <point x="2160" y="870" type="line"/>
      <point x="1640" y="870" type="line"/>
      <point x="1678" y="1052" type="line"/>
      <point x="2312" y="1052" type="line"/>
      <point x="2386" y="1400" type="line"/>
      <point x="1368" y="1400" type="line"/>
      <point x="1308" y="1120" type="line"/>
      <point x="1404" y="1214" type="line"/>
      <point x="1286" y="1368"/>
      <point x="1120" y="1430"/>
      <point x="884" y="1430" type="curve" smooth="yes"/>
      <point x="450" y="1430"/>
      <point x="106" y="1064"/>
      <point x="106" y="612" type="curve" smooth="yes"/>
      <point x="106" y="246"/>
      <point x="368" y="-30"/>
    </contour>
    <contour>
      <point x="836" y="348" type="curve" smooth="yes"/>
      <point x="652" y="348"/>
      <point x="534" y="460"/>
      <point x="534" y="642" type="curve" smooth="yes"/>
      <point x="534" y="870"/>
      <point x="684" y="1052"/>
      <point x="904" y="1052" type="curve" smooth="yes"/>
      <point x="1088" y="1052"/>
      <point x="1206" y="938"/>
      <point x="1206" y="754" type="curve" smooth="yes"/>
      <point x="1206" y="528"/>
      <point x="1056" y="348"/>
    </contour>
  </outline>
</glyph>
<glyph name="Uogonek" format="2">
  <advance width="1539"/>
  <unicode hex="0172"/>
  <anchor x="956" y="1400" name="top"/>
  <outline>
    <contour>
      <point x="782" y="-449" type="curve" smooth="yes"/>
      <point x="849" y="-449"/>
      <point x="910" y="-437"/>
      <point x="968" y="-407" type="curve"/>
      <point x="1017" y="-174" type="line"/>
      <point x="978" y="-213"/>
      <point x="927" y="-229"/>
      <point x="876" y="-229" type="curve" smooth="yes"/>
      <point x="833" y="-229"/>
      <point x="799" y="-205"/>
      <point x="799" y="-158" type="curve" smooth="yes"/>
      <point x="799" y="-63"/>
      <point x="865" y="-19"/>
      <point x="947" y="6" type="curve" smooth="yes"/>
      <point x="1189" y="87"/>
      <point x="1345" y="297"/>
      <point x="1408" y="596" type="curve" smooth="yes"/>
      <point x="1578" y="1400" type="line"/>
      <point x="1172" y="1400" type="line"/>
      <point x="996" y="574" type="line" smooth="yes"/>
      <point x="962" y="412"/>
      <point x="870" y="348"/>
      <point x="742" y="348" type="curve" smooth="yes"/>
      <point x="588" y="348"/>
      <point x="530" y="424"/>
      <point x="562" y="574" type="curve" smooth="yes"/>
      <point x="738" y="1400" type="line"/>
      <point x="334" y="1400" type="line"/>
      <point x="164" y="596" type="line" smooth="yes"/>
      <point x="85" y="226"/>
      <point x="279" y="-1"/>
      <point x="637" y="-27" type="curve"/>
      <point x="591" y="-83"/>
      <point x="563" y="-152"/>
      <point x="563" y="-235" type="curve" smooth="yes"/>
      <point x="563" y="-365"/>
      <point x="660" y="-449"/>
    </contour>
  </outline>
</glyph>
<glyph name="uogonek" format="2">
  <advance width="1321"/>
  <unicode hex="0173"/>
  <anchor x="542" y="0" name="bottom"/>
  <anchor x="1084" y="0" name="descender"/>
  <anchor x="1306" y="1040" name="horn"/>
  <anchor x="1084" y="0" name="ogonek"/>
  <anchor x="776" y="1040" name="top"/>
  <outline>
    <contour>
      <point x="792" y="-449" type="curve" smooth="yes"/>
      <point x="859" y="-449"/>
      <point x="920" y="-437"/>
      <point x="978" y="-407" type="curve"/>
      <point x="1027" y="-174" type="line"/>
      <point x="988" y="-213"/>
      <point x="937" y="-229"/>
      <point x="886" y="-229" type="curve" smooth="yes"/>
      <point x="843" y="-229"/>
      <point x="809" y="-205"/>
      <point x="809" y="-158" type="curve" smooth="yes"/>
      <point x="809" y="-32"/>
      <point x="957" y="-7"/>
      <point x="1084" y="0" type="curve"/>
      <point x="1084.0" y="98.5" type="line"/>
      <point x="821.0" y="87.5"/>
      <point x="573.0" y="-23.5"/>
      <point x="573" y="-240" type="curve" smooth="yes"/>
      <point x="573" y="-367"/>
      <point x="670" y="-449"/>
    </contour>
    <component base="u"/>
  </outline>
</glyph>
<glyph name="oogonek" format="2">
  <advance width="1286"/>
  <unicode hex="01EB"/>
  <anchor x="727" y="1040" name="top"/>
  <outline>
    <contour>
      <point x="541" y="-449" type="curve" smooth="yes"/>
      <point x="608" y="-449"/>
      <point x="669" y="-437"/>
      <point x="727" y="-407" type="curve"/>
      <point x="776" y="-174" type="line"/>
      <point x="737" y="-213"/>
      <point x="686" y="-229"/>
      <point x="635" y="-229" type="curve" smooth="yes"/>
      <point x="587" y="-229"/>
      <point x="558" y="-202"/>
      <point x="558" y="-158" type="curve" smooth="yes"/>
      <point x="558" y="-76"/>
      <point x="627" y="-35"/>
      <point x="710" y="-19" type="curve" smooth="yes"/>
      <point x="1002" y="37"/>
      <point x="1239" y="282"/>
      <point x="1239" y="578" type="curve" smooth="yes"/>
      <point x="1239" y="848"/>
      <point x="1029" y="1070"/>
      <point x="695" y="1070" type="curve" smooth="yes"/>
      <point x="349" y="1070"/>
      <point x="47" y="796"/>
      <point x="47" y="464" type="curve" smooth="yes"/>
      <point x="47" y="240"/>
      <point x="188" y="50"/>
      <point x="425" y="-10" type="curve"/>
      <point x="361" y="-67"/>
      <point x="322" y="-141"/>
      <point x="322" y="-235" type="curve" smooth="yes"/>
      <point x="322" y="-365"/>
      <point x="419" y="-449"/>
    </contour>
    <contour>
      <point x="621" y="310" type="curve" smooth="yes"/>
      <point x="515" y="310"/>
      <point x="439" y="380"/>
      <point x="439" y="490" type="curve" smooth="yes"/>
      <point x="439" y="616"/>
      <point x="529" y="730"/>
      <point x="665" y="730" type="curve" smooth="yes"/>
      <point x="773" y="730"/>
      <point x="847" y="662"/>
      <point x="847" y="552" type="curve" smooth="yes"/>
      <point x="847" y="426"/>
      <point x="759" y="310"/>
    </contour>
  </outline>
</glyph>
<glyph name="circumflexcomb" format="2">
  <unicode hex="0302"/>
  <anchor x="608" y="1040" name="_top"/>
  <anchor x="702" y="1484" name="top"/>
  <anchor x="1192" y="1384" name="top_right"/>
  <outline>
    <contour>
      <point x="148" y="1170" type="line"/>
      <point x="528" y="1170" type="line"/>
      <point x="678" y="1326" type="line"/>
      <point x="754" y="1170" type="line"/>
      <point x="1104" y="1170" type="line"/>
      <point x="886" y="1544" type="line"/>
      <point x="546" y="1544" type="line"/>
    </contour>
  </outline>
</glyph>
<glyph name="dieresiscomb" format="2">
  <unicode hex="0308"/>
  <anchor x="608" y="1040" name="_top"/>
  <anchor x="702" y="1484" name="top"/>
  <outline>
    <contour>
      <point x="384" y="1170" type="curve" smooth="yes"/>
      <point x="498" y="1170"/>
      <point x="616" y="1256"/>
      <point x="616" y="1398" type="curve" smooth="yes"/>
      <point x="616" y="1508"/>
      <point x="528" y="1578"/>
      <point x="424" y="1578" type="curve" smooth="yes"/>
      <point x="310" y="1578"/>
      <point x="192" y="1492"/>
      <point x="192" y="1350" type="curve" smooth="yes"/>
      <point x="192" y="1240"/>
      <point x="280" y="1170"/>
    </contour>
    <contour>
      <point x="932" y="1170" type="curve" smooth="yes"/>
      <point x="1046" y="1170"/>
      <point x="1164" y="1256"/>
      <point x="1164" y="1398" type="curve" smooth="yes"/>
      <point x="1164" y="1508"/>
      <point x="1076" y="1578"/>
      <point x="972" y="1578" type="curve" smooth="yes"/>
      <point x="858" y="1578"/>
      <point x="740" y="1492"/>
      <point x="740" y="1350" type="curve" smooth="yes"/>
      <point x="740" y="1240"/>
      <point x="828" y="1170"/>
    </contour>
  </outline>
</glyph>
<glyph name="hookabovecomb" format="2">
  <unicode hex="0309"/>
  <anchor x="395" y="1040" name="_top"/>
  <outline>
    <contour>
      <point x="307" y="1170" type="curve"/>
      <point x="543" y="1170" type="line"/>
      <point x="531" y="1214"/>
      <point x="553" y="1232"/>
      <point x="621" y="1262" type="curve" smooth="yes"/>
      <point x="711" y="1302"/>
      <point x="773" y="1354"/>
      <point x="773" y="1454" type="curve" smooth="yes"/>
      <point x="773" y="1564"/>
      <point x="663" y="1634"/>
      <point x="475" y="1634" type="curve" smooth="yes"/>
      <point x="395" y="1634"/>
      <point x="305" y="1620"/>
      <point x="239" y="1594" type="curve"/>
      <point x="197" y="1400" type="line"/>
      <point x="251" y="1416"/>
      <point x="303" y="1426"/>
      <point x="369" y="1426" type="curve" smooth="yes"/>
      <point x="419" y="1426"/>
      <point x="459" y="1416"/>
      <point x="459" y="1396" type="curve" smooth="yes"/>
      <point x="459" y="1370"/>
      <point x="441" y="1362"/>
      <point x="391" y="1348" type="curve" smooth="yes"/>
      <point x="293" y="1322"/>
      <point x="267" y="1262"/>
    </contour>
  </outline>
</glyph>
<glyph name="ringcomb" format="2">
  <unicode hex="030A"/>
  <anchor x="423" y="1040" name="_top"/>
  <anchor x="539" y="1584" name="top"/>
  <outline>
    <contour>
      <point x="469" y="1110" type="curve" smooth="yes"/>
      <point x="643" y="1110"/>
      <point x="799" y="1242"/>
      <point x="799" y="1412" type="curve" smooth="yes"/>
      <point x="799" y="1556"/>
      <point x="685" y="1666"/>
      <point x="525" y="1666" type="curve" smooth="yes"/>
      <point x="349" y="1666"/>
      <point x="195" y="1534"/>
      <point x="195" y="1362" type="curve" smooth="yes"/>
      <point x="195" y="1220"/>
      <point x="309" y="1110"/>
    </contour>
    <contour>
      <point x="485" y="1288" type="curve" smooth="yes"/>
      <point x="429" y="1288"/>
      <point x="395" y="1324"/>
      <point x="395" y="1374" type="curve" smooth="yes"/>
      <point x="395" y="1438"/>
      <point x="445" y="1488"/>
      <point x="509" y="1488" type="curve" smooth="yes"/>
      <point x="565" y="1488"/>
      <point x="599" y="1452"/>
      <point x="599" y="1402" type="curve" smooth="yes"/>
      <point x="599" y="1338"/>
      <point x="549" y="1288"/>
    </contour>
  </outline>
</glyph>
<glyph name="hungarumlautcomb" format="2">
  <unicode hex="030B"/>
  <anchor x="558" y="1040" name="_top"/>
  <outline>
    <contour>
      <point x="658" y="1170" type="line"/>
      <point x="998" y="1170" type="line"/>
      <point x="1280" y="1544" type="line"/>
      <point x="902" y="1544" type="line"/>
    </contour>
    <contour>
      <point x="148" y="1170" type="line"/>
      <point x="488" y="1170" type="line"/>
      <point x="770" y="1544" type="line"/>
      <point x="392" y="1544" type="line"/>
    </contour>
  </outline>
</glyph>
<glyph name="breveinvertedcomb" format="2">
  <unicode hex="0311"/>
  <anchor x="558" y="1040" name="_top"/>
  <outline>
    <contour>
      <point x="152" y="1170" type="curve"/>
      <point x="472" y="1170" type="line"/>
      <point x="478" y="1252"/>
      <point x="530" y="1304"/>
      <point x="604" y="1304" type="curve" smooth="yes"/>
      <point x="692" y="1304"/>
      <point x="722" y="1248"/>
      <point x="710" y="1170" type="curve"/>
      <point x="1032" y="1170" type="line"/>
      <point x="1060" y="1392"/>
      <point x="894" y="1554"/>
      <point x="618" y="1554" type="curve" smooth="yes"/>
      <point x="358" y="1554"/>
      <point x="172" y="1404"/>
    </contour>
  </outline>
</glyph>
<glyph name="commaturnedabovecomb" format="2">
  <unicode hex="0312"/>
  <anchor x="390" y="1040" name="_top"/>
  <outline>
    <contour>
      <point x="472" y="1174" type="curve" smooth="yes"/>
      <point x="605" y="1174"/>
      <point x="705" y="1272"/>
      <point x="705" y="1394" type="curve" smooth="yes"/>
      <point x="705" y="1509"/>
      <point x="600" y="1589"/>
      <point x="484" y="1578" type="curve"/>
      <point x="527" y="1673"/>
      <point x="649" y="1727"/>
      <point x="784" y="1733" type="curve"/>
      <point x="821" y="1935" type="line"/>
      <point x="490" y="1909"/>
      <point x="214" y="1724"/>
      <point x="214" y="1436" type="curve" smooth="yes"/>
      <point x="214" y="1274"/>
      <point x="321" y="1174"/>
    </contour>
  </outline>
</glyph>
<glyph name="brevebelowcomb" format="2">
  <unicode hex="032E"/>
  <anchor x="346" y="0" name="_bottom"/>
  <outline>
    <contour>
      <point x="286" y="-514" type="curve" smooth="yes"/>
      <point x="540" y="-514"/>
      <point x="732" y="-360"/>
      <point x="752" y="-130" type="curve"/>
      <point x="432" y="-130" type="line"/>
      <point x="426" y="-212"/>
      <point x="374" y="-264"/>
      <point x="300" y="-264" type="curve" smooth="yes"/>
      <point x="220" y="-264"/>
      <point x="180" y="-210"/>
      <point x="194" y="-130" type="curve"/>
      <point x="-128" y="-130" type="line"/>
      <point x="-156" y="-368"/>
      <point x="22" y="-514"/>
    </contour>
  </outline>
</glyph>
<glyph name="strokeshortcomb" format="2">
  <unicode hex="0335"/>
  <anchor x="412" y="534" name="_bar"/>
  <outline>
    <contour>
      <point x="-10" y="428" type="line"/>
      <point x="790" y="428" type="line"/>
      <point x="836" y="640" type="line"/>
      <point x="36" y="640" type="line"/>
    </contour>
  </outline>
</glyph>
<glyph name="lowernumeral-greek" format="2">
  <advance width="515"/>
  <unicode hex="0375"/>
  <outline>
    <contour>
      <point x="-208" y="-420" type="line"/>
      <point x="152" y="-420" type="line"/>
      <point x="392" y="278" type="line"/>
      <point x="110" y="278" type="line"/>
    </contour>
  </outline>
</glyph>
<glyph name="dieresistonos" format="2">
  <unicode hex="0385"/>
  <anchor x="-638" y="1040" name="_top"/>
  <outline>
    <contour>
      <point x="-722" y="1330" type="line"/>
      <point x="-482" y="1330" type="line"/>
      <point x="-280" y="1704" type="line"/>
      <point x="-596" y="1704" type="line"/>
    </contour>
    <contour>
      <point x="-941" y="1189" type="curve" smooth="yes"/>
      <point x="-836" y="1189"/>
      <point x="-747" y="1267"/>
      <point x="-747" y="1396" type="curve" smooth="yes"/>
      <point x="-747" y="1496"/>
      <point x="-810" y="1559"/>
      <point x="-907" y="1559" type="curve" smooth="yes"/>
      <point x="-1012" y="1559"/>
      <point x="-1101" y="1481"/>
      <point x="-1101" y="1352" type="curve" smooth="yes"/>
      <point x="-1101" y="1252"/>
      <point x="-1037" y="1189"/>
    </contour>
    <contour>
      <point x="-229" y="1189" type="curve" smooth="yes"/>
      <point x="-124" y="1189"/>
      <point x="-35" y="1267"/>
      <point x="-35" y="1396" type="curve" smooth="yes"/>
      <point x="-35" y="1496"/>
      <point x="-99" y="1559"/>
      <point x="-195" y="1559" type="curve" smooth="yes"/>
      <point x="-300" y="1559"/>
      <point x="-389" y="1481"/>
      <point x="-389" y="1352" type="curve" smooth="yes"/>
      <point x="-389" y="1252"/>
      <point x="-326" y="1189"/>
    </contour>
  </outline>
</glyph>
<glyph name="Lambda" format="2">
  <advance width="1466"/>
  <unicode hex="039B"/>
  <outline>
    <contour>
      <point x="-108" y="0" type="line"/>
      <point x="356" y="0" type="line"/>
      <point x="820" y="890" type="line"/>
      <point x="908" y="0" type="line"/>
      <point x="1352" y="0" type="line"/>
      <point x="1154" y="1400" type="line"/>
      <point x="684" y="1400" type="line"/>
    </contour>
  </outline>
</glyph>
<glyph name="Xi" format="2">
  <advance width="1275"/>
  <unicode hex="039E"/>
  <outline>
    <contour>
      <point x="-28" y="0" type="line"/>
      <point x="1024" y="0" type="line"/>
      <point x="1178" y="352" type="line"/>
      <point x="46" y="352" type="line"/>
    </contour>
    <contour>
      <point x="196" y="548" type="line"/>
      <point x="1038" y="548" type="line"/>
      <point x="1106" y="866" type="line"/>
      <point x="334" y="866" type="line"/>
    </contour>
    <contour>
      <point x="174" y="1052" type="line"/>
      <point x="1266" y="1052" type="line"/>
      <point x="1340" y="1400" type="line"/>
      <point x="328" y="1400" type="line"/>
    </contour>
  </outline>
</glyph>
<glyph name="Psi" format="2">
  <advance width="1854"/>
  <unicode hex="03A8"/>
  <outline>
    <contour>
      <point x="629" y="0" type="line"/>
      <point x="1029" y="0" type="line"/>
      <point x="1080" y="243" type="line"/>
      <point x="1479" y="261"/>
      <point x="1729" y="473"/>
      <point x="1813" y="867" type="curve" smooth="yes"/>
      <point x="1841" y="998"/>
      <point x="1858" y="1146"/>
      <point x="1865" y="1400" type="curve"/>
      <point x="1478" y="1400" type="line"/>
      <point x="1473" y="1212"/>
      <point x="1465" y="1069"/>
      <point x="1430" y="907" type="curve" smooth="yes"/>
      <point x="1394" y="735"/>
      <point x="1306" y="625"/>
      <point x="1156" y="603" type="curve"/>
      <point x="1323" y="1400" type="line"/>
      <point x="923" y="1400" type="line"/>
      <point x="762" y="634" type="line"/>
      <point x="633" y="659"/>
      <point x="590" y="735"/>
      <point x="590" y="853" type="curve" smooth="yes"/>
      <point x="590" y="1010"/>
      <point x="670" y="1263"/>
      <point x="766" y="1400" type="curve"/>
      <point x="379" y="1400" type="line"/>
      <point x="276" y="1272"/>
      <point x="195" y="990"/>
      <point x="195" y="802" type="curve" smooth="yes"/>
      <point x="195" y="511"/>
      <point x="329" y="333"/>
      <point x="686" y="272" type="curve"/>
    </contour>
  </outline>
</glyph>
<glyph name="alpha" format="2">
  <advance width="1404"/>
  <unicode hex="03B1"/>
  <anchor x="836" y="1040" name="top"/>
  <outline>
    <contour>
      <point x="467" y="-30" type="curve" smooth="yes"/>
      <point x="613" y="-30"/>
      <point x="756" y="37"/>
      <point x="832" y="150" type="curve"/>
      <point x="852" y="-22"/>
      <point x="1059" y="-72"/>
      <point x="1221" y="6" type="curve"/>
      <point x="1288" y="322" type="line"/>
      <point x="1116" y="276"/>
      <point x="1120" y="358"/>
      <point x="1186" y="520" type="curve" smooth="yes"/>
      <point x="1396" y="1040" type="line"/>
      <point x="1030" y="1040" type="line"/>
      <point x="955" y="890" type="line"/>
      <point x="882" y="1016"/>
      <point x="751" y="1070"/>
      <point x="611" y="1070" type="curve" smooth="yes"/>
      <point x="277" y="1070"/>
      <point x="47" y="776"/>
      <point x="47" y="445" type="curve" smooth="yes"/>
      <point x="47" y="167"/>
      <point x="197" y="-30"/>
    </contour>
    <contour>
      <point x="572" y="310" type="curve" smooth="yes"/>
      <point x="496" y="310"/>
      <point x="430" y="362"/>
      <point x="430" y="472" type="curve" smooth="yes"/>
      <point x="430" y="588"/>
      <point x="504" y="730"/>
      <point x="632" y="730" type="curve" smooth="yes"/>
      <point x="736" y="730"/>
      <point x="782" y="638"/>
      <point x="782" y="514" type="curve"/>
      <point x="754" y="378"/>
      <point x="658" y="310"/>
    </contour>
  </outline>
</glyph>
<glyph name="delta" format="2">
  <advance width="1237"/>
  <unicode hex="03B4"/>
  <outline>
    <contour>
      <point x="556" y="-30" type="curve" smooth="yes"/>
      <point x="904" y="-30"/>
      <point x="1176" y="178"/>
      <point x="1176" y="514" type="curve" smooth="yes"/>
      <point x="1176" y="748"/>
      <point x="1058" y="840"/>
      <point x="896" y="934" type="curve" smooth="yes"/>
      <point x="756" y="1014"/>
      <point x="684" y="1040"/>
      <point x="684" y="1086" type="curve" smooth="yes"/>
      <point x="684" y="1134"/>
      <point x="736" y="1160"/>
      <point x="846" y="1160" type="curve" smooth="yes"/>
      <point x="894" y="1160"/>
      <point x="1006" y="1156"/>
      <point x="1144" y="1076" type="curve"/>
      <point x="1212" y="1398" type="line"/>
      <point x="1090" y="1452"/>
      <point x="956" y="1470"/>
      <point x="848" y="1470" type="curve" smooth="yes"/>
      <point x="560" y="1470"/>
      <point x="316" y="1364"/>
      <point x="316" y="1110" type="curve" smooth="yes"/>
      <point x="316" y="968"/>
      <point x="400" y="892"/>
      <point x="432" y="874" type="curve"/>
      <point x="190" y="814"/>
      <point x="38" y="658"/>
      <point x="38" y="428" type="curve" smooth="yes"/>
      <point x="38" y="186"/>
      <point x="216" y="-30"/>
    </contour>
    <contour>
      <point x="590" y="302" type="curve" smooth="yes"/>
      <point x="480" y="302"/>
      <point x="430" y="382"/>
      <point x="430" y="464" type="curve" smooth="yes"/>
      <point x="430" y="572"/>
      <point x="518" y="626"/>
      <point x="646" y="666" type="curve"/>
      <point x="730" y="634"/>
      <point x="784" y="556"/>
      <point x="784" y="474" type="curve" smooth="yes"/>
      <point x="784" y="366"/>
      <point x="690" y="302"/>
    </contour>
  </outline>
</glyph>
<glyph name="kappa" format="2">
  <advance width="1239"/>
  <unicode hex="03BA"/>
  <outline>
    <contour>
      <point x="16" y="0" type="line"/>
      <point x="416" y="0" type="line"/>
      <point x="482" y="308" type="line"/>
      <point x="580" y="374" type="line"/>
      <point x="676" y="0" type="line"/>
      <point x="1088" y="0" type="line"/>
      <point x="898" y="590" type="line"/>
      <point x="948" y="624" type="line" smooth="yes"/>
      <point x="1020" y="674"/>
      <point x="1070" y="704"/>
      <point x="1184" y="698" type="curve"/>
      <point x="1298" y="1058" type="line"/>
      <point x="1088" y="1096"/>
      <point x="956" y="1040"/>
      <point x="788" y="914" type="curve" smooth="yes"/>
      <point x="576" y="756" type="line"/>
      <point x="648" y="1100" type="line"/>
      <point x="210" y="914" type="line"/>
    </contour>
  </outline>
</glyph>
<glyph name="lambda" format="2">
  <advance width="1258"/>
  <unicode hex="03BB"/>
  <outline>
    <contour>
      <point x="-105" y="0" type="line"/>
      <point x="327" y="0" type="line"/>
      <point x="663" y="638" type="line"/>
      <point x="719" y="0" type="line"/>
      <point x="1141" y="0" type="line"/>
      <point x="955" y="1118" type="line" smooth="yes"/>
      <point x="908" y="1388"/>
      <point x="772" y="1470"/>
      <point x="537" y="1470" type="curve" smooth="yes"/>
      <point x="460" y="1470"/>
      <point x="353" y="1456"/>
      <point x="307" y="1440" type="curve"/>
      <point x="233" y="1106" type="line"/>
      <point x="307" y="1124"/>
      <point x="375" y="1132"/>
      <point x="429" y="1132" type="curve" smooth="yes"/>
      <point x="491" y="1132"/>
      <point x="545" y="1114"/>
      <point x="547" y="1056" type="curve" smooth="yes"/>
      <point x="547" y="1040" type="line"/>
    </contour>
  </outline>
</glyph>
<glyph name="xi" format="2">
  <advance width="1064"/>
  <unicode hex="03BE"/>
  <outline>
    <contour>
      <point x="783" y="-420" type="line"/>
      <point x="872" y="-324"/>
      <point x="936" y="-183"/>
      <point x="936" y="-85" type="curve" smooth="yes"/>
      <point x="936" y="209"/>
      <point x="442" y="294"/>
      <point x="440" y="452" type="curve" smooth="yes"/>
      <point x="439" y="528"/>
      <point x="501" y="568"/>
      <point x="619" y="568" type="curve" smooth="yes"/>
      <point x="914" y="568" type="line"/>
      <point x="985" y="893" type="line"/>
      <point x="725" y="893" type="line" smooth="yes"/>
      <point x="641" y="893"/>
      <point x="589" y="934"/>
      <point x="589" y="1000" type="curve" smooth="yes"/>
      <point x="589" y="1089"/>
      <point x="664" y="1140"/>
      <point x="795" y="1140" type="curve" smooth="yes"/>
      <point x="915" y="1140"/>
      <point x="1046" y="1104"/>
      <point x="1131" y="1048" type="curve"/>
      <point x="1203" y="1383" type="line"/>
      <point x="1083" y="1439"/>
      <point x="932" y="1470"/>
      <point x="775" y="1470" type="curve" smooth="yes"/>
      <point x="450" y="1470"/>
      <point x="226" y="1305"/>
      <point x="226" y="1066" type="curve" smooth="yes"/>
      <point x="226" y="958"/>
      <point x="282" y="868"/>
      <point x="393" y="802" type="curve"/>
      <point x="167" y="755"/>
      <point x="35" y="615"/>
      <point x="35" y="422" type="curve" smooth="yes"/>
      <point x="35" y="85"/>
      <point x="536" y="13"/>
      <point x="536" y="-184" type="curve" smooth="yes"/>
      <point x="536" y="-237"/>
      <point x="493" y="-309"/>
      <point x="396" y="-420" type="curve"/>
    </contour>
  </outline>
</glyph>
<glyph name="sigmafinal" format="2">
  <advance width="1002"/>
  <unicode hex="03C2"/>
  <outline>
    <contour>
      <point x="792" y="-420" type="line"/>
      <point x="878" y="-327"/>
      <point x="944" y="-185"/>
      <point x="944" y="-85" type="curve" smooth="yes"/>
      <point x="944" y="246"/>
      <point x="455" y="312"/>
      <point x="453" y="547" type="curve" smooth="yes"/>
      <point x="452" y="655"/>
      <point x="532" y="730"/>
      <point x="667" y="730" type="curve" smooth="yes"/>
      <point x="783" y="730"/>
      <point x="890" y="700"/>
      <point x="971" y="628" type="curve"/>
      <point x="1046" y="980" type="line"/>
      <point x="939" y="1039"/>
      <point x="810" y="1070"/>
      <point x="667" y="1070" type="curve" smooth="yes"/>
      <point x="337" y="1070"/>
      <point x="55" y="829"/>
      <point x="55" y="498" type="curve" smooth="yes"/>
      <point x="55" y="90"/>
      <point x="544" y="32"/>
      <point x="544" y="-184" type="curve" smooth="yes"/>
      <point x="544" y="-237"/>
      <point x="500" y="-310"/>
      <point x="404" y="-420" type="curve"/>
    </contour>
  </outline>
</glyph>
<glyph name="psi" format="2">
  <advance width="1710"/>
  <unicode hex="03C8"/>
  <outline>
    <contour>
      <point x="453" y="-420" type="line"/>
      <point x="853" y="-420" type="line"/>
      <point x="935" y="-30" type="line"/>
      <point x="1404" y="-30"/>
      <point x="1657" y="316"/>
      <point x="1657" y="780" type="curve" smooth="yes"/>
      <point x="1657" y="866"/>
      <point x="1651" y="953"/>
      <point x="1638" y="1040" type="curve"/>
      <point x="1240" y="1040" type="line"/>
      <point x="1258" y="975"/>
      <point x="1266" y="890"/>
      <point x="1266" y="801" type="curve" smooth="yes"/>
      <point x="1266" y="559"/>
      <point x="1185" y="310"/>
      <point x="999" y="310" type="curve"/>
      <point x="1205" y="1280" type="line"/>
      <point x="821" y="1280" type="line"/>
      <point x="615" y="310" type="line"/>
      <point x="511" y="310"/>
      <point x="457" y="358"/>
      <point x="499" y="550" type="curve" smooth="yes"/>
      <point x="617" y="1094" type="line"/>
      <point x="191" y="914" type="line"/>
      <point x="145" y="702" type="line" smooth="yes"/>
      <point x="29" y="170"/>
      <point x="179" y="-6"/>
      <point x="535" y="-30" type="curve"/>
    </contour>
  </outline>
</glyph>
<glyph name="KaiSymbol" format="2">
  <advance width="1516"/>
  <unicode hex="03CF"/>
  <outline>
    <contour>
      <point x="579" y="-420" type="line"/>
      <point x="1059" y="-420" type="line"/>
      <point x="1419" y="0" type="line"/>
      <point x="997" y="750" type="line"/>
      <point x="1657" y="1400" type="line"/>
      <point x="1151" y="1400" type="line"/>
      <point x="635" y="882" type="line"/>
      <point x="745" y="1400" type="line"/>
      <point x="341" y="1400" type="line"/>
      <point x="43" y="0" type="line"/>
      <point x="447" y="0" type="line"/>
      <point x="513" y="312" type="line"/>
      <point x="665" y="446" type="line"/>
      <point x="917" y="-32" type="line"/>
    </contour>
  </outline>
</glyph>
<glyph name="Lje-cy" format="2">
  <advance width="2163"/>
  <unicode hex="0409"/>
  <outline>
    <contour>
      <point x="-53" y="-20" type="line"/>
      <point x="267" y="-68"/>
      <point x="567" y="62"/>
      <point x="643" y="420" type="curve" smooth="yes"/>
      <point x="773" y="1032" type="line"/>
      <point x="1081" y="1032" type="line"/>
      <point x="1557" y="1400" type="line"/>
      <point x="471" y="1400" type="line"/>
      <point x="281" y="504" type="line" smooth="yes"/>
      <point x="247" y="340"/>
      <point x="119" y="304"/>
      <point x="17" y="312" type="curve"/>
    </contour>
    <contour>
      <point x="1327" y="294" type="line"/>
      <point x="1383" y="566" type="line"/>
      <point x="1511" y="566" type="line" smooth="yes"/>
      <point x="1625" y="566"/>
      <point x="1673" y="514"/>
      <point x="1675" y="442" type="curve" smooth="yes"/>
      <point x="1677" y="370"/>
      <point x="1625" y="294"/>
      <point x="1491" y="294" type="curve" smooth="yes"/>
    </contour>
    <contour>
      <point x="859" y="0" type="line"/>
      <point x="1493" y="0" type="line" smooth="yes"/>
      <point x="1909" y="0"/>
      <point x="2111" y="240"/>
      <point x="2109" y="494" type="curve" smooth="yes"/>
      <point x="2107" y="712"/>
      <point x="1945" y="908"/>
      <point x="1583" y="908" type="curve" smooth="yes"/>
      <point x="1455" y="908" type="line"/>
      <point x="1557" y="1400" type="line"/>
      <point x="1155" y="1400" type="line"/>
    </contour>
  </outline>
</glyph>
<glyph name="Tshe-cy" format="2">
  <advance width="1706"/>
  <unicode hex="040B"/>
  <outline>
    <contour>
      <point x="99" y="1040" type="line"/>
      <point x="1461" y="1040" type="line"/>
      <point x="1537" y="1400" type="line"/>
      <point x="255" y="1400" type="line"/>
    </contour>
    <contour>
      <point x="281" y="0" type="line"/>
      <point x="685" y="0" type="line"/>
      <point x="793" y="520" type="line"/>
      <point x="859" y="538"/>
      <point x="919" y="548"/>
      <point x="997" y="548" type="curve" smooth="yes"/>
      <point x="1149" y="548"/>
      <point x="1219" y="482"/>
      <point x="1179" y="298" type="curve" smooth="yes"/>
      <point x="1117" y="0" type="line"/>
      <point x="1521" y="0" type="line"/>
      <point x="1595" y="352" type="line" smooth="yes"/>
      <point x="1679" y="744"/>
      <point x="1485" y="900"/>
      <point x="1155" y="900" type="curve" smooth="yes"/>
      <point x="1057" y="900"/>
      <point x="965" y="882"/>
      <point x="863" y="850" type="curve"/>
      <point x="981" y="1400" type="line"/>
      <point x="577" y="1400" type="line"/>
    </contour>
  </outline>
</glyph>
<glyph name="Be-cy" format="2">
  <advance width="1356"/>
  <unicode hex="0411"/>
  <outline>
    <contour>
      <point x="45" y="0" type="line"/>
      <point x="641" y="0" type="line" smooth="yes"/>
      <point x="1025" y="0"/>
      <point x="1269" y="192"/>
      <point x="1271" y="482" type="curve" smooth="yes"/>
      <point x="1273" y="734"/>
      <point x="1095" y="864"/>
      <point x="747" y="864" type="curve" smooth="yes"/>
      <point x="631" y="864" type="line"/>
      <point x="667" y="1032" type="line"/>
      <point x="1223" y="1032" type="line"/>
      <point x="1301" y="1400" type="line"/>
      <point x="341" y="1400" type="line"/>
    </contour>
    <contour>
      <point x="511" y="290" type="line"/>
      <point x="571" y="574" type="line"/>
      <point x="683" y="574" type="line" smooth="yes"/>
      <point x="791" y="574"/>
      <point x="845" y="530"/>
      <point x="845" y="444" type="curve" smooth="yes"/>
      <point x="845" y="346"/>
      <point x="779" y="290"/>
      <point x="663" y="290" type="curve" smooth="yes"/>
    </contour>
  </outline>
</glyph>
<glyph name="Ge-cy" format="2">
  <advance width="1082"/>
  <unicode hex="0413"/>
  <anchor x="465" y="644" name="bar"/>
  <anchor x="449" y="0" name="descender"/>
  <anchor x="791" y="1400" name="top"/>
  <outline>
    <contour>
      <point x="45" y="0" type="line"/>
      <point x="449" y="0" type="line"/>
      <point x="667" y="1032" type="line"/>
      <point x="1163" y="1032" type="line"/>
      <point x="1241" y="1400" type="line"/>
      <point x="341" y="1400" type="line"/>
    </contour>
  </outline>
</glyph>
<glyph name="De-cy" format="2">
  <advance width="1712"/>
  <unicode hex="0414"/>
  <outline>
    <contour>
      <point x="923" y="0" type="line"/>
      <point x="1327" y="0" type="line"/>
      <point x="1625" y="1400" type="line"/>
      <point x="475" y="1400" type="line"/>
      <point x="285" y="514" type="line" smooth="yes"/>
      <point x="251" y="352"/>
      <point x="125" y="316"/>
      <point x="23" y="324" type="curve"/>
      <point x="-37" y="40" type="line"/>
      <point x="283" y="-8"/>
      <point x="587" y="142"/>
      <point x="675" y="560" type="curve" smooth="yes"/>
      <point x="775" y="1032" type="line"/>
      <point x="1141" y="1032" type="line"/>
    </contour>
    <contour>
      <point x="-139" y="-440" type="line"/>
      <point x="283" y="-260" type="line"/>
      <point x="339" y="0" type="line"/>
      <point x="1171" y="0" type="line"/>
      <point x="1077" y="-440" type="line"/>
      <point x="1499" y="-260" type="line"/>
      <point x="1633" y="368" type="line"/>
      <point x="361" y="368" type="line"/>
      <point x="275" y="284" type="line"/>
      <point x="23" y="324" type="line"/>
    </contour>
  </outline>
</glyph>
<glyph name="Ii-cy" format="2">
  <advance width="1592"/>
  <unicode hex="0418"/>
  <anchor x="687" y="0" name="bottom"/>
  <anchor x="983" y="1400" name="top"/>
  <outline>
    <contour>
      <point x="45" y="0" type="line"/>
      <point x="445" y="0" type="line"/>
      <point x="1089" y="760" type="line"/>
      <point x="927" y="0" type="line"/>
      <point x="1327" y="0" type="line"/>
      <point x="1623" y="1400" type="line"/>
      <point x="1221" y="1400" type="line"/>
      <point x="583" y="654" type="line"/>
      <point x="741" y="1400" type="line"/>
      <point x="341" y="1400" type="line"/>
    </contour>
  </outline>
</glyph>
<glyph name="de-cy" format="2">
  <advance width="1460"/>
  <unicode hex="0434"/>
  <outline>
    <contour>
      <point x="723" y="0" type="line"/>
      <point x="1123" y="0" type="line"/>
      <point x="1343" y="1040" type="line"/>
      <point x="352" y="1040" type="line"/>
      <point x="225" y="444" type="line" smooth="yes"/>
      <point x="198" y="316"/>
      <point x="97" y="288"/>
      <point x="11" y="292" type="curve"/>
      <point x="-47" y="20" type="line"/>
      <point x="241" y="-26"/>
      <point x="509" y="86"/>
      <point x="575" y="400" type="curve" smooth="yes"/>
      <point x="645" y="728" type="line"/>
      <point x="877" y="728" type="line"/>
    </contour>
    <contour>
      <point x="-133" y="-384" type="line"/>
      <point x="267" y="-216" type="line"/>
      <point x="313" y="0" type="line"/>
      <point x="963" y="0" type="line"/>
      <point x="881" y="-384" type="line"/>
      <point x="1281" y="-216" type="line"/>
      <point x="1393" y="312" type="line"/>
      <point x="273" y="312" type="line"/>
      <point x="205" y="286" type="line"/>
      <point x="11" y="292" type="line"/>
    </contour>
  </outline>
</glyph>
<glyph name="ze-cy" format="2">
  <advance width="1060"/>
  <unicode hex="0437"/>
  <anchor x="382" y="0" name="bottom"/>
  <anchor x="580" y="1040" name="top"/>
  <outline>
    <contour>
      <point x="448" y="-30" type="curve" smooth="yes"/>
      <point x="708" y="-30"/>
      <point x="942" y="92"/>
      <point x="942" y="312" type="curve" smooth="yes"/>
      <point x="942" y="420"/>
      <point x="884" y="492"/>
      <point x="776" y="542" type="curve"/>
      <point x="894" y="572"/>
      <point x="992" y="678"/>
      <point x="992" y="790" type="curve" smooth="yes"/>
      <point x="992" y="994"/>
      <point x="764" y="1076"/>
      <point x="548" y="1076" type="curve" smooth="yes"/>
      <point x="432" y="1076"/>
      <point x="308" y="1058"/>
      <point x="192" y="1016" type="curve"/>
      <point x="128" y="710" type="line"/>
      <point x="222" y="760"/>
      <point x="342" y="784"/>
      <point x="466" y="784" type="curve" smooth="yes"/>
      <point x="542" y="784"/>
      <point x="634" y="766"/>
      <point x="626" y="708" type="curve" smooth="yes"/>
      <point x="618" y="666"/>
      <point x="578" y="662"/>
      <point x="474" y="662" type="curve" smooth="yes"/>
      <point x="324" y="662" type="line"/>
      <point x="210" y="394" type="line"/>
      <point x="428" y="394" type="line" smooth="yes"/>
      <point x="530" y="394"/>
      <point x="580" y="370"/>
      <point x="580" y="330" type="curve" smooth="yes"/>
      <point x="580" y="275"/>
      <point x="526" y="252"/>
      <point x="431" y="252" type="curve" smooth="yes"/>
      <point x="309" y="252"/>
      <point x="155" y="290"/>
      <point x="73" y="372" type="curve"/>
      <point x="14" y="76" type="line"/>
      <point x="134" y="4"/>
      <point x="302" y="-30"/>
    </contour>
  </outline>
</glyph>
<glyph name="ii-cy" format="2">
  <advance width="1366"/>
  <unicode hex="0438"/>
  <anchor x="573" y="0" name="bottom"/>
  <anchor x="793" y="1040" name="top"/>
  <outline>
    <contour>
      <point x="15" y="0" type="line"/>
      <point x="375" y="0" type="line"/>
      <point x="845" y="460" type="line"/>
      <point x="747" y="0" type="line"/>
      <point x="1129" y="0" type="line"/>
      <point x="1351" y="1040" type="line"/>
      <point x="989" y="1040" type="line"/>
      <point x="519" y="590" type="line"/>
      <point x="627" y="1100" type="line"/>
      <point x="211" y="922" type="line"/>
    </contour>
  </outline>
</glyph>
<glyph name="pe-cy" format="2">
  <advance width="1374"/>
  <unicode hex="043F"/>
  <anchor x="795" y="1040" name="top"/>
  <outline>
    <contour>
      <point x="17" y="0" type="line"/>
      <point x="417" y="0" type="line"/>
      <point x="571" y="728" type="line"/>
      <point x="891" y="728" type="line"/>
      <point x="737" y="0" type="line"/>
      <point x="1137" y="0" type="line"/>
      <point x="1357" y="1040" type="line"/>
      <point x="237" y="1040" type="line"/>
    </contour>
  </outline>
</glyph>
<glyph name="sha-cy" format="2">
  <advance width="1905"/>
  <unicode hex="0448"/>
  <anchor x="1668" y="0" name="descender"/>
  <outline>
    <contour>
      <point x="16" y="0" type="line"/>
      <point x="1668" y="0" type="line"/>
      <point x="1900" y="1100" type="line"/>
      <point x="1484" y="924" type="line"/>
      <point x="1354" y="312" type="line"/>
      <point x="1098" y="312" type="line"/>
      <point x="1264" y="1100" type="line"/>
      <point x="848" y="924" type="line"/>
      <point x="718" y="312" type="line"/>
      <point x="462" y="312" type="line"/>
      <point x="628" y="1100" type="line"/>
      <point x="212" y="924" type="line"/>
    </contour>
  </outline>
</glyph>
<glyph name="ia-cy" format="2">
  <advance width="1176"/>
  <unicode hex="044F"/>
  <anchor x="711" y="1040" name="top"/>
  <outline>
    <contour>
      <point x="-71" y="0" type="line"/>
      <point x="349" y="0" type="line"/>
      <point x="585" y="320" type="line"/>
      <point x="659" y="320" type="line"/>
      <point x="711" y="578" type="line"/>
      <point x="623" y="578" type="line" smooth="yes"/>
      <point x="545" y="578"/>
      <point x="509" y="610"/>
      <point x="509" y="668" type="curve" smooth="yes"/>
      <point x="509" y="728"/>
      <point x="549" y="768"/>
      <point x="637" y="768" type="curve" smooth="yes"/>
      <point x="723" y="768" type="line"/>
      <point x="559" y="0" type="line"/>
      <point x="939" y="0" type="line"/>
      <point x="1159" y="1040" type="line"/>
      <point x="639" y="1040" type="line" smooth="yes"/>
      <point x="283" y="1040"/>
      <point x="107" y="898"/>
      <point x="103" y="652" type="curve" smooth="yes"/>
      <point x="109" y="442"/>
      <point x="289" y="352"/>
      <point x="467" y="326" type="curve"/>
      <point x="387" y="566" type="line"/>
    </contour>
  </outline>
</glyph>
<glyph name="e-cy" format="2">
  <advance width="1083"/>
  <unicode hex="0454"/>
  <outline>
    <contour>
      <point x="615" y="-30" type="curve" smooth="yes"/>
      <point x="713" y="-30"/>
      <point x="817" y="-10"/>
      <point x="911" y="26" type="curve"/>
      <point x="977" y="338" type="line"/>
      <point x="875" y="284"/>
      <point x="775" y="262"/>
      <point x="673" y="262" type="curve" smooth="yes"/>
      <point x="483" y="262"/>
      <point x="409" y="340"/>
      <point x="409" y="488" type="curve" smooth="yes"/>
      <point x="409" y="650"/>
      <point x="481" y="778"/>
      <point x="683" y="778" type="curve" smooth="yes"/>
      <point x="793" y="778"/>
      <point x="911" y="744"/>
      <point x="993" y="658" type="curve"/>
      <point x="1061" y="978" type="line"/>
      <point x="957" y="1038"/>
      <point x="833" y="1070"/>
      <point x="705" y="1070" type="curve" smooth="yes"/>
      <point x="337" y="1070"/>
      <point x="53" y="820"/>
      <point x="53" y="488" type="curve" smooth="yes"/>
      <point x="53" y="180"/>
      <point x="277" y="-30"/>
    </contour>
    <contour>
      <point x="265" y="396" type="line"/>
      <point x="805" y="396" type="line"/>
      <point x="861" y="664" type="line"/>
      <point x="321" y="664" type="line"/>
    </contour>
  </outline>
</glyph>
<glyph name="nje-cy" format="2">
  <advance width="1898"/>
  <unicode hex="045A"/>
  <outline>
    <contour>
      <point x="15" y="0" type="line"/>
      <point x="415" y="0" type="line"/>
      <point x="649" y="1100" type="line"/>
      <point x="211" y="914" type="line"/>
    </contour>
    <contour>
      <point x="715" y="0" type="line"/>
      <point x="1313" y="0" type="line" smooth="yes"/>
      <point x="1603" y="0"/>
      <point x="1801" y="152"/>
      <point x="1801" y="366" type="curve" smooth="yes"/>
      <point x="1801" y="582"/>
      <point x="1641" y="704"/>
      <point x="1353" y="704" type="curve" smooth="yes"/>
      <point x="497" y="704" type="line"/>
      <point x="447" y="420" type="line"/>
      <point x="937" y="420" type="line"/>
      <point x="1103" y="440" type="line"/>
      <point x="1287" y="440" type="line" smooth="yes"/>
      <point x="1351" y="440"/>
      <point x="1387" y="408"/>
      <point x="1387" y="359" type="curve" smooth="yes"/>
      <point x="1387" y="304"/>
      <point x="1341" y="268"/>
      <point x="1281" y="268" type="curve" smooth="yes"/>
      <point x="1169" y="268" type="line"/>
      <point x="1349" y="1100" type="line"/>
      <point x="911" y="914" type="line"/>
    </contour>
  </outline>
</glyph>
<glyph name="gheupturn-cy" format="2">
  <advance width="899"/>
  <unicode hex="0491"/>
  <anchor x="336" y="462" name="bar"/>
  <anchor x="418" y="0" name="descender"/>
  <anchor x="610" y="1040" name="top"/>
  <outline>
    <contour>
      <point x="539" y="728" type="line"/>
      <point x="903" y="728" type="line"/>
      <point x="1051" y="1424" type="line"/>
      <point x="651" y="1256" type="line"/>
    </contour>
    <component base="ge-cy"/>
  </outline>
</glyph>
<glyph name="ustraight-cy" format="2">
  <advance width="1170"/>
  <unicode hex="04AF"/>
  <anchor x="469" y="-80" name="bar"/>
  <outline>
    <contour>
      <point x="197" y="-420" type="line"/>
      <point x="597" y="-420" type="line"/>
      <point x="685" y="2" type="line"/>
      <point x="1275" y="1040" type="line"/>
      <point x="841" y="1040" type="line"/>
      <point x="503" y="356" type="line"/>
      <point x="599" y="338" type="line"/>
      <point x="537" y="1040" type="line"/>
      <point x="117" y="1040" type="line"/>
      <point x="285" y="0" type="line"/>
    </contour>
  </outline>
</glyph>
<glyph name="Shha-cy" format="2">
  <advance width="1470"/>
  <unicode hex="04BA"/>
  <outline>
    <contour>
      <point x="45" y="0" type="line"/>
      <point x="449" y="0" type="line"/>
      <point x="569" y="580" type="line"/>
      <point x="635" y="598"/>
      <point x="695" y="608"/>
      <point x="773" y="608" type="curve" smooth="yes"/>
      <point x="925" y="608"/>
      <point x="997" y="542"/>
      <point x="957" y="358" type="curve" smooth="yes"/>
      <point x="881" y="0" type="line"/>
      <point x="1285" y="0" type="line"/>
      <point x="1371" y="412" type="line" smooth="yes"/>
      <point x="1453" y="804"/>
      <point x="1263" y="960"/>
      <point x="933" y="960" type="curve" smooth="yes"/>
      <point x="835" y="960"/>
      <point x="743" y="942"/>
      <point x="639" y="910" type="curve"/>
      <point x="745" y="1400" type="line"/>
      <point x="341" y="1400" type="line"/>
    </contour>
  </outline>
</glyph>
<glyph name="Obarred-cy" format="2">
  <advance width="1658"/>
  <unicode hex="04E8"/>
  <anchor x="755" y="0" name="bottom"/>
  <anchor x="1383" y="1400" name="horn"/>
  <anchor x="1021" y="0" name="ogonek"/>
  <anchor x="979" y="1400" name="top"/>
  <anchor x="273" y="1400" name="topleft"/>
  <outline>
    <contour>
      <point x="367" y="562" type="line"/>
      <point x="1329" y="562" type="line"/>
      <point x="1393" y="864" type="line"/>
      <point x="431" y="864" type="line"/>
    </contour>
    <component base="O"/>
  </outline>
</glyph>
<glyph name="bullet" format="2">
  <advance width="1000"/>
  <unicode hex="2022"/>
  <outline>
    <contour>
      <point x="494" y="260" type="curve" smooth="yes"/>
      <point x="762" y="260"/>
      <point x="978" y="472"/>
      <point x="978" y="740" type="curve" smooth="yes"/>
      <point x="978" y="958"/>
      <point x="820" y="1116"/>
      <point x="578" y="1116" type="curve" smooth="yes"/>
      <point x="310" y="1116"/>
      <point x="94" y="904"/>
      <point x="94" y="638" type="curve" smooth="yes"/>
      <point x="94" y="422"/>
      <point x="254" y="260"/>
    </contour>
  </outline>
</glyph>
<glyph name="guilsinglleft" format="2">
  <advance width="710"/>
  <unicode hex="2039"/>
  <outline>
    <contour>
      <point x="206" y="140" type="line"/>
      <point x="560" y="140" type="line"/>
      <point x="408" y="508" type="line"/>
      <point x="722" y="918" type="line"/>
      <point x="344" y="918" type="line"/>
      <point x="42" y="528" type="line"/>
    </contour>
  </outline>
</glyph>
<glyph name="guilsinglright" format="2">
  <advance width="710"/>
  <unicode hex="203A"/>
  <outline>
    <contour>
      <point x="370" y="140" type="line"/>
      <point x="672" y="530" type="line"/>
      <point x="508" y="918" type="line"/>
      <point x="154" y="918" type="line"/>
      <point x="306" y="550" type="line"/>
      <point x="-8" y="140" type="line"/>
    </contour>
  </outline>
</glyph>
<glyph name="fraction" format="2">
  <advance width="404"/>
  <unicode hex="2044"/>
  <outline>
    <contour>
      <point x="-168" y="0" type="line"/>
      <point x="929" y="1400" type="line"/>
      <point x="648" y="1400" type="line"/>
      <point x="-449" y="0" type="line"/>
    </contour>
  </outline>
</glyph>
<glyph name="dong" format="2">
  <advance width="1296"/>
  <unicode hex="20AB"/>
  <anchor x="1091" y="1224" name="bar"/>
  <anchor x="1375" y="1440" name="caron"/>
  <outline>
    <contour>
      <point x="-114" y="-408" type="line"/>
      <point x="986" y="-408" type="line"/>
      <point x="1052" y="-92" type="line"/>
      <point x="-48" y="-92" type="line"/>
    </contour>
    <component base="dcroat" xOffset="-60"/>
  </outline>
</glyph>
<glyph name="northWestArrow" format="2">
  <advance width="2129"/>
  <unicode hex="2196"/>
  <outline>
    <contour>
      <point x="1587" y="-64" type="line"/>
      <point x="1797" y="146" type="line"/>
      <point x="821" y="1120" type="line"/>
      <point x="1295" y="1120" type="line"/>
      <point x="1295" y="1400" type="line"/>
      <point x="331" y="1400" type="line"/>
      <point x="333" y="436" type="line"/>
      <point x="613" y="436" type="line"/>
      <point x="613" y="908" type="line"/>
    </contour>
  </outline>
</glyph>
<glyph name="minus" format="2">
  <advance width="1296"/>
  <unicode hex="2212"/>
  <outline>
    <contour>
      <point x="72" y="536" type="line"/>
      <point x="1232" y="536" type="line"/>
      <point x="1288" y="804" type="line"/>
      <point x="128" y="804" type="line"/>
    </contour>
  </outline>
</glyph>
<glyph name="divisionslash" format="2">
  <advance width="1296"/>
  <unicode hex="2215"/>
  <outline>
    <contour>
      <point x="293" y="0" type="line"/>
      <point x="1359" y="1400" type="line"/>
      <point x="1081" y="1400" type="line"/>
      <point x="14" y="0" type="line"/>
    </contour>
  </outline>
</glyph>
<glyph name="leftanglebracket-math" format="2">
  <advance width="1296"/>
  <unicode hex="27E8"/>
  <outline>
    <contour>
      <point x="926" y="-450" type="line"/>
      <point x="1006" y="-70" type="line"/>
      <point x="534" y="646" type="line"/>
      <point x="1310" y="1360" type="line"/>
      <point x="1398" y="1778" type="line"/>
      <point x="190" y="664" type="line"/>
    </contour>
  </outline>
</glyph>
<glyph name=".notdef" format="2">
  <advance width="1358"/>
  <outline>
    <contour>
      <point x="17" y="0" type="line"/>
      <point x="1121" y="0" type="line"/>
      <point x="1417" y="1400" type="line"/>
      <point x="313" y="1400" type="line"/>
    </contour>
    <contour>
      <point x="397" y="266" type="line"/>
      <point x="581" y="1134" type="line"/>
      <point x="1037" y="1134" type="line"/>
      <point x="853" y="266" type="line"/>
    </contour>
  </outline>
</glyph>
<glyph name="_part.Tse-cy" format="2">
  <advance width="1586"/>
  <anchor x="683" y="0" name="bottom"/>
  <anchor x="1321" y="0" name="descender"/>
  <outline>
    <contour>
      <point x="45" y="0" type="line"/>
      <point x="1321" y="0" type="line"/>
      <point x="1617" y="1400" type="line"/>
      <point x="1213" y="1400" type="line"/>
      <point x="995" y="368" type="line"/>
      <point x="527" y="368" type="line"/>
      <point x="745" y="1400" type="line"/>
      <point x="341" y="1400" type="line"/>
    </contour>
  </outline>
</glyph>
<glyph name="_part.cy-desc-lc-reversed" format="2">
  <advance width="1200"/>
  <anchor x="1220" y="0" name="_descender"/>
  <outline>
    <contour>
      <point x="1254" y="-216" type="line"/>
      <point x="1300" y="0" type="line"/>
      <point x="1380" y="0" type="line"/>
      <point x="1446" y="312" type="line"/>
      <point x="1002" y="312" type="line"/>
      <point x="854" y="-384" type="line"/>
    </contour>
  </outline>
</glyph>
<glyph name="_part.cy-desc-uc-reversed" format="2">
  <advance width="993"/>
  <anchor x="-110" y="0" name="_descender"/>
  <outline>
    <contour>
      <point x="-432" y="-440" type="line"/>
      <point x="-10" y="-260" type="line"/>
      <point x="46" y="0" type="line"/>
      <point x="146" y="0" type="line"/>
      <point x="222" y="368" type="line"/>
      <point x="-262" y="368" type="line"/>
    </contour>
  </outline>
</glyph>
<glyph name="_part.cy-descender-lc-center" format="2">
  <advance width="993"/>
  <anchor x="-144" y="0" name="_bottom"/>
  <outline>
    <contour>
      <point x="-408" y="-386" type="line"/>
      <point x="-8" y="-214" type="line"/>
      <point x="82" y="208" type="line"/>
      <point x="-280" y="208" type="line"/>
    </contour>
  </outline>
</glyph>
<glyph name="_part.cy-descender-uc-center" format="2">
  <advance width="993"/>
  <anchor x="-138" y="0" name="_bottom"/>
  <outline>
    <contour>
      <point x="-424" y="-440" type="line"/>
      <point x="-2" y="-260" type="line"/>
      <point x="116" y="288" type="line"/>
      <point x="-268" y="288" type="line"/>
    </contour>
  </outline>
</glyph>
<glyph name="_part.heng" format="2">
  <advance width="1364"/>
  <anchor x="553" y="1224" name="bar"/>
  <outline>
    <contour>
      <point x="671" y="-332" type="line"/>
      <point x="1037" y="-172"/>
      <point x="1305" y="206"/>
      <point x="1305" y="604" type="curve" smooth="yes"/>
      <point x="1305" y="866"/>
      <point x="1177" y="1070"/>
      <point x="907" y="1070" type="curve" smooth="yes"/>
      <point x="803" y="1070"/>
      <point x="683" y="1018"/>
      <point x="613" y="944" type="curve"/>
      <point x="729" y="1480" type="line"/>
      <point x="291" y="1294" type="line"/>
      <point x="15" y="0" type="line"/>
      <point x="415" y="0" type="line"/>
      <point x="527" y="536" type="line" smooth="yes"/>
      <point x="551" y="652"/>
      <point x="625" y="710"/>
      <point x="717" y="710" type="curve" smooth="yes"/>
      <point x="801" y="710"/>
      <point x="861" y="646"/>
      <point x="861" y="514" type="curve" smooth="yes"/>
      <point x="861" y="318"/>
      <point x="719" y="88"/>
      <point x="499" y="-18" type="curve"/>
    </contour>
  </outline>
</glyph>
<glyph name="_part.hryvnia" format="2">
  <advance width="1296"/>
  <anchor x="798" y="1400" name="top"/>
  <outline>
    <contour>
      <point x="638" y="-32" type="curve" smooth="yes"/>
      <point x="776" y="-32"/>
      <point x="900" y="-4"/>
      <point x="1000" y="38" type="curve"/>
      <point x="1074" y="364" type="line"/>
      <point x="976" y="290"/>
      <point x="808" y="240"/>
      <point x="664" y="240" type="curve" smooth="yes"/>
      <point x="530" y="240"/>
      <point x="444" y="280"/>
      <point x="444" y="372" type="curve" smooth="yes"/>
      <point x="444" y="468"/>
      <point x="530" y="518"/>
      <point x="634" y="554" type="curve" smooth="yes"/>
      <point x="762" y="598" type="line" smooth="yes"/>
      <point x="988" y="676"/>
      <point x="1192" y="806"/>
      <point x="1192" y="1048" type="curve" smooth="yes"/>
      <point x="1192" y="1296"/>
      <point x="958" y="1430"/>
      <point x="694" y="1430" type="curve" smooth="yes"/>
      <point x="576" y="1430"/>
      <point x="466" y="1408"/>
      <point x="370" y="1372" type="curve"/>
      <point x="300" y="1050" type="line"/>
      <point x="392" y="1114"/>
      <point x="512" y="1162"/>
      <point x="654" y="1162" type="curve" smooth="yes"/>
      <point x="794" y="1162"/>
      <point x="876" y="1108"/>
      <point x="876" y="1022" type="curve" smooth="yes"/>
      <point x="876" y="926"/>
      <point x="802" y="890"/>
      <point x="686" y="850" type="curve" smooth="yes"/>
      <point x="562" y="806" type="line" smooth="yes"/>
      <point x="326" y="722"/>
      <point x="128" y="620"/>
      <point x="128" y="360" type="curve" smooth="yes"/>
      <point x="128" y="96"/>
      <point x="372" y="-32"/>
    </contour>
  </outline>
</glyph>
<glyph name="_part.won" format="2">
  <advance width="1296"/>
  <anchor x="836" y="1400" name="top"/>
  <outline>
    <contour>
      <point x="170" y="0" type="line"/>
      <point x="450" y="0" type="line"/>
      <point x="722" y="870" type="line"/>
      <point x="630" y="0" type="line"/>
      <point x="910" y="0" type="line"/>
      <point x="1408" y="1400" type="line"/>
      <point x="1128" y="1400" type="line"/>
      <point x="886" y="584" type="line"/>
      <point x="988" y="1400" type="line"/>
      <point x="690" y="1400" type="line"/>
      <point x="440" y="554" type="line"/>
      <point x="546" y="1400" type="line"/>
      <point x="264" y="1400" type="line"/>
    </contour>
  </outline>
</glyph>
<glyph name="acutecomb.narrow" format="2">
  <anchor x="322" y="1040" name="_top"/>
  <outline>
    <contour>
      <point x="148" y="1170" type="line"/>
      <point x="516" y="1170" type="line"/>
      <point x="798" y="1544" type="line"/>
      <point x="392" y="1544" type="line"/>
    </contour>
  </outline>
</glyph>
<glyph name="aogonek.ss01" format="2">
  <advance width="1348"/>
  <anchor x="559" y="0" name="bottom"/>
  <anchor x="1111" y="0" name="ogonek"/>
  <anchor x="727" y="1040" name="top"/>
  <outline>
    <contour>
      <point x="819" y="-449" type="curve" smooth="yes"/>
      <point x="886" y="-449"/>
      <point x="947" y="-437"/>
      <point x="1005" y="-407" type="curve"/>
      <point x="1054" y="-174" type="line"/>
      <point x="1015" y="-213"/>
      <point x="964" y="-229"/>
      <point x="913" y="-229" type="curve" smooth="yes"/>
      <point x="870" y="-229"/>
      <point x="836" y="-205"/>
      <point x="836" y="-158" type="curve" smooth="yes"/>
      <point x="836" y="-32"/>
      <point x="984" y="-7"/>
      <point x="1111" y="0" type="curve"/>
      <point x="1111.0" y="98.5" type="line"/>
      <point x="848.0" y="87.5"/>
      <point x="600.0" y="-23.5"/>
      <point x="600" y="-240" type="curve" smooth="yes"/>
      <point x="600" y="-367"/>
      <point x="697" y="-449"/>
    </contour>
    <component base="a.ss01"/>
  </outline>
</glyph>
<glyph name="brevecomb.narrow" format="2">
  <anchor x="526" y="1040" name="_top"/>
  <anchor x="620" y="1484" name="top"/>
  <outline>
    <contour>
      <point x="592" y="1160" type="curve" smooth="yes"/>
      <point x="822" y="1160"/>
      <point x="998" y="1314"/>
      <point x="1024" y="1544" type="curve"/>
      <point x="706" y="1544" type="line"/>
      <point x="700" y="1462"/>
      <point x="660" y="1410"/>
      <point x="612" y="1410" type="curve" smooth="yes"/>
      <point x="556" y="1410"/>
      <point x="534" y="1472"/>
      <point x="548" y="1544" type="curve"/>
      <point x="228" y="1544" type="line"/>
      <point x="194" y="1318"/>
      <point x="344" y="1160"/>
    </contour>
  </outline>
</glyph>
<glyph name="caroncomb.alt_case" format="2">
  <anchor x="96" y="1440" name="_caron"/>
  <outline>
    <contour>
      <point x="130" y="1080" type="line"/>
      <point x="428" y="1080" type="line"/>
      <point x="592" y="1440" type="line"/>
      <point x="206" y="1440" type="line"/>
    </contour>
  </outline>
</glyph>
<glyph name="dblgravecomb.case" format="2">
  <anchor x="883" y="1400" name="_top"/>
  <outline>
    <contour>
      <point x="1397" y="1508" type="line"/>
      <point x="1257" y="1862" type="line"/>
      <point x="855" y="1862" type="line"/>
      <point x="1031" y="1508" type="line"/>
    </contour>
    <contour>
      <point x="839" y="1508" type="line"/>
      <point x="697" y="1862" type="line"/>
      <point x="295" y="1862" type="line"/>
      <point x="471" y="1508" type="line"/>
    </contour>
  </outline>
</glyph>
<glyph name="dieresiscomb.narrow" format="2">
  <anchor x="551" y="1040" name="_top"/>
  <anchor x="645" y="1484" name="top"/>
  <outline>
    <contour>
      <point x="369" y="1170" type="curve" smooth="yes"/>
      <point x="485" y="1170"/>
      <point x="583" y="1256"/>
      <point x="583" y="1398" type="curve" smooth="yes"/>
      <point x="583" y="1508"/>
      <point x="513" y="1578"/>
      <point x="407" y="1578" type="curve" smooth="yes"/>
      <point x="291" y="1578"/>
      <point x="193" y="1492"/>
      <point x="193" y="1350" type="curve" smooth="yes"/>
      <point x="193" y="1240"/>
      <point x="263" y="1170"/>
    </contour>
    <contour>
      <point x="835" y="1170" type="curve" smooth="yes"/>
      <point x="951" y="1170"/>
      <point x="1049" y="1256"/>
      <point x="1049" y="1398" type="curve" smooth="yes"/>
      <point x="1049" y="1508"/>
      <point x="979" y="1578"/>
      <point x="873" y="1578" type="curve" smooth="yes"/>
      <point x="757" y="1578"/>
      <point x="659" y="1492"/>
      <point x="659" y="1350" type="curve" smooth="yes"/>
      <point x="659" y="1240"/>
      <point x="729" y="1170"/>
    </contour>
  </outline>
</glyph>
<glyph name="four.dnom" format="2">
  <advance width="846"/>
  <outline>
    <contour>
      <point x="362" y="0" type="line"/>
      <point x="576" y="0" type="line"/>
      <point x="610" y="160" type="line"/>
      <point x="728" y="160" type="line"/>
      <point x="770" y="366" type="line"/>
      <point x="652" y="366" type="line"/>
      <point x="686" y="528" type="line"/>
      <point x="474" y="528" type="line"/>
      <point x="438" y="366" type="line"/>
      <point x="282" y="366" type="line"/>
      <point x="650" y="910" type="line"/>
      <point x="384" y="910" type="line"/>
      <point x="0" y="340" type="line"/>
      <point x="-38" y="160" type="line"/>
      <point x="396" y="160" type="line"/>
    </contour>
  </outline>
</glyph>
<glyph name="g.ss01" format="2">
  <advance width="1347"/>
  <anchor x="704" y="1040" name="top"/>
  <outline>
    <contour>
      <point x="460" y="-450" type="curve" smooth="yes"/>
      <point x="828" y="-450"/>
      <point x="1056" y="-244"/>
      <point x="1144" y="164" type="curve" smooth="yes"/>
      <point x="1340" y="1082" type="line"/>
      <point x="902" y="894" type="line"/>
      <point x="870" y="744" type="line"/>
      <point x="982" y="822" type="line"/>
      <point x="962" y="978"/>
      <point x="808" y="1070"/>
      <point x="600" y="1070" type="curve" smooth="yes"/>
      <point x="274" y="1070"/>
      <point x="52" y="798"/>
      <point x="52" y="468" type="curve" smooth="yes"/>
      <point x="52" y="204"/>
      <point x="220" y="30"/>
      <point x="496" y="30" type="curve" smooth="yes"/>
      <point x="662" y="30"/>
      <point x="784" y="96"/>
      <point x="846" y="216" type="curve"/>
      <point x="824" y="302" type="line"/>
      <point x="774" y="104" type="line" smooth="yes"/>
      <point x="742" y="-46"/>
      <point x="636" y="-114"/>
      <point x="466" y="-114" type="curve" smooth="yes"/>
      <point x="348" y="-114"/>
      <point x="250" y="-90"/>
      <point x="164" y="-42" type="curve"/>
      <point x="92" y="-379" type="line"/>
      <point x="191" y="-428"/>
      <point x="313" y="-450"/>
    </contour>
    <contour>
      <point x="620" y="360" type="curve" smooth="yes"/>
      <point x="514" y="360"/>
      <point x="446" y="426"/>
      <point x="446" y="524" type="curve" smooth="yes"/>
      <point x="446" y="650"/>
      <point x="540" y="740"/>
      <point x="658" y="740" type="curve" smooth="yes"/>
      <point x="764" y="740"/>
      <point x="832" y="672"/>
      <point x="832" y="572" type="curve" smooth="yes"/>
      <point x="832" y="448"/>
      <point x="738" y="360"/>
    </contour>
  </outline>
</glyph>
<glyph name="ge-cy.loclBGR" format="2">
  <advance width="1064"/>
  <anchor x="407" y="0" name="bottom"/>
  <anchor x="673" y="1040" name="top"/>
  <outline>
    <contour>
      <point x="421" y="-28" type="curve" smooth="yes"/>
      <point x="579" y="-28"/>
      <point x="733" y="4"/>
      <point x="865" y="66" type="curve"/>
      <point x="937" y="404" type="line"/>
      <point x="785" y="314"/>
      <point x="637" y="264"/>
      <point x="511" y="264" type="curve" smooth="yes"/>
      <point x="441" y="264"/>
      <point x="403" y="280"/>
      <point x="403" y="310" type="curve" smooth="yes"/>
      <point x="403" y="346"/>
      <point x="437" y="362"/>
      <point x="603" y="414" type="curve" smooth="yes"/>
      <point x="927" y="516"/>
      <point x="1037" y="640"/>
      <point x="1037" y="806" type="curve" smooth="yes"/>
      <point x="1037" y="982"/>
      <point x="893" y="1080"/>
      <point x="657" y="1080" type="curve" smooth="yes"/>
      <point x="527" y="1080"/>
      <point x="381" y="1046"/>
      <point x="257" y="992" type="curve"/>
      <point x="185" y="658" type="line"/>
      <point x="313" y="738"/>
      <point x="455" y="788"/>
      <point x="563" y="788" type="curve" smooth="yes"/>
      <point x="623" y="788"/>
      <point x="665" y="768"/>
      <point x="665" y="738" type="curve" smooth="yes"/>
      <point x="665" y="704"/>
      <point x="635" y="690"/>
      <point x="469" y="646" type="curve" smooth="yes"/>
      <point x="155" y="563"/>
      <point x="31" y="444"/>
      <point x="31" y="266" type="curve" smooth="yes"/>
      <point x="31" y="78"/>
      <point x="179" y="-28"/>
    </contour>
  </outline>
</glyph>
<glyph name="hookabovecomb.narrow" format="2">
  <anchor x="379" y="1040" name="_top"/>
  <outline>
    <contour>
      <point x="291" y="1170" type="curve"/>
      <point x="523" y="1170" type="line"/>
      <point x="515" y="1210"/>
      <point x="533" y="1232"/>
      <point x="591" y="1262" type="curve" smooth="yes"/>
      <point x="673" y="1304"/>
      <point x="727" y="1356"/>
      <point x="727" y="1458" type="curve" smooth="yes"/>
      <point x="727" y="1566"/>
      <point x="633" y="1634"/>
      <point x="463" y="1634" type="curve" smooth="yes"/>
      <point x="383" y="1634"/>
      <point x="299" y="1618"/>
      <point x="243" y="1594" type="curve"/>
      <point x="197" y="1400" type="line"/>
      <point x="245" y="1416"/>
      <point x="289" y="1426"/>
      <point x="347" y="1426" type="curve" smooth="yes"/>
      <point x="383" y="1426"/>
      <point x="413" y="1416"/>
      <point x="413" y="1396" type="curve" smooth="yes"/>
      <point x="413" y="1376"/>
      <point x="407" y="1362"/>
      <point x="363" y="1348" type="curve" smooth="yes"/>
      <point x="277" y="1320"/>
      <point x="257" y="1262"/>
    </contour>
  </outline>
</glyph>
<glyph name="horncomb.alt" format="2">
  <anchor x="194" y="1040" name="_horn"/>
  <outline>
    <contour>
      <point x="238" y="720" type="curve" smooth="yes"/>
      <point x="422" y="720"/>
      <point x="556" y="862"/>
      <point x="556" y="1038" type="curve" smooth="yes"/>
      <point x="557" y="1098"/>
      <point x="542" y="1162"/>
      <point x="511" y="1222" type="curve"/>
      <point x="235" y="1222" type="line"/>
      <point x="265" y="1157"/>
      <point x="276" y="1095"/>
      <point x="274" y="1046" type="curve" smooth="yes"/>
      <point x="274" y="982"/>
      <point x="240" y="944"/>
      <point x="186" y="944" type="curve" smooth="yes"/>
      <point x="162" y="944"/>
      <point x="136" y="952"/>
      <point x="106" y="966" type="curve"/>
      <point x="60" y="756" type="line"/>
      <point x="120" y="736"/>
      <point x="178" y="720"/>
    </contour>
  </outline>
</glyph>
<glyph name="horncomb.alt_case" format="2">
  <anchor x="359" y="1400" name="_horn"/>
  <outline>
    <contour>
      <point x="425" y="1036" type="curve" smooth="yes"/>
      <point x="627" y="1036"/>
      <point x="775" y="1186"/>
      <point x="775" y="1374" type="curve" smooth="yes"/>
      <point x="774" y="1437"/>
      <point x="760" y="1505"/>
      <point x="728" y="1568" type="curve"/>
      <point x="439" y="1568" type="line"/>
      <point x="470" y="1496"/>
      <point x="481" y="1437"/>
      <point x="479" y="1386" type="curve" smooth="yes"/>
      <point x="479" y="1316"/>
      <point x="439" y="1270"/>
      <point x="373" y="1270" type="curve" smooth="yes"/>
      <point x="323" y="1270"/>
      <point x="261" y="1300"/>
      <point x="183" y="1336" type="curve"/>
      <point x="137" y="1110" type="line"/>
      <point x="235" y="1070"/>
      <point x="329" y="1036"/>
    </contour>
  </outline>
</glyph>
<glyph name="horncomb.case" format="2">
  <anchor x="654" y="1400" name="_horn"/>
  <outline>
    <contour>
      <point x="810" y="1066" type="curve" smooth="yes"/>
      <point x="1008" y="1066"/>
      <point x="1156" y="1202"/>
      <point x="1156" y="1378" type="curve" smooth="yes"/>
      <point x="1156" y="1438"/>
      <point x="1140" y="1505"/>
      <point x="1105" y="1566" type="curve"/>
      <point x="810" y="1566" type="line"/>
      <point x="841" y="1509"/>
      <point x="861" y="1449"/>
      <point x="861" y="1401" type="curve" smooth="yes"/>
      <point x="861" y="1338"/>
      <point x="829" y="1295"/>
      <point x="750" y="1300" type="curve" smooth="yes"/>
      <point x="636" y="1307"/>
      <point x="508" y="1430"/>
      <point x="204" y="1430" type="curve"/>
      <point x="158" y="1216" type="line"/>
      <point x="404" y="1210"/>
      <point x="592" y="1066"/>
    </contour>
  </outline>
</glyph>
<glyph name="jdotless.calt" format="2">
  <advance width="652"/>
  <anchor x="435" y="1040" name="top"/>
  <outline>
    <contour>
      <point x="-33" y="-450" type="curve" smooth="yes"/>
      <point x="187" y="-450"/>
      <point x="346" y="-326"/>
      <point x="397" y="-86" type="curve" smooth="yes"/>
      <point x="649" y="1100" type="line"/>
      <point x="209" y="914" type="line"/>
      <point x="3" y="-54" type="line" smooth="yes"/>
      <point x="-7" y="-103"/>
      <point x="-34" y="-126"/>
      <point x="-82" y="-126" type="curve" smooth="yes"/>
      <point x="-103" y="-126"/>
      <point x="-120" y="-124"/>
      <point x="-138" y="-118" type="curve"/>
      <point x="-206" y="-435" type="line"/>
      <point x="-163" y="-446"/>
      <point x="-116" y="-450"/>
    </contour>
  </outline>
</glyph>
<glyph name="macroncomb.narrow" format="2">
  <anchor x="473" y="1040" name="_top"/>
  <outline>
    <contour>
      <point x="161" y="1230" type="line"/>
      <point x="863" y="1230" type="line"/>
      <point x="915" y="1462" type="line"/>
      <point x="215" y="1462" type="line"/>
    </contour>
  </outline>
</glyph>
<glyph name="one.dnom" format="2">
  <advance width="674"/>
  <outline>
    <contour>
      <point x="204" y="0" type="line"/>
      <point x="442" y="0" type="line"/>
      <point x="640" y="930" type="line"/>
      <point x="622" y="930" type="line"/>
      <point x="178" y="794" type="line"/>
      <point x="128" y="558" type="line"/>
      <point x="338" y="618" type="line"/>
    </contour>
  </outline>
</glyph>
<glyph name="softsign-cy.loclBGR" format="2">
  <advance width="1188"/>
  <outline>
    <contour>
      <point x="586" y="-20" type="curve" smooth="yes"/>
      <point x="870" y="-20"/>
      <point x="1110" y="168"/>
      <point x="1110" y="414" type="curve" smooth="yes"/>
      <point x="1110" y="628"/>
      <point x="936" y="776"/>
      <point x="680" y="776" type="curve" smooth="yes"/>
      <point x="584" y="776"/>
      <point x="492" y="760"/>
      <point x="364" y="674" type="curve"/>
      <point x="520" y="590" type="line"/>
      <point x="628" y="1100" type="line"/>
      <point x="190" y="914" type="line"/>
      <point x="102" y="500" type="line" smooth="yes"/>
      <point x="26" y="142"/>
      <point x="266" y="-20"/>
    </contour>
    <contour>
      <point x="592" y="268" type="curve" smooth="yes"/>
      <point x="520" y="268"/>
      <point x="458" y="312"/>
      <point x="458" y="374" type="curve" smooth="yes"/>
      <point x="458" y="446"/>
      <point x="522" y="486"/>
      <point x="602" y="486" type="curve" smooth="yes"/>
      <point x="680" y="486"/>
      <point x="742" y="446"/>
      <point x="742" y="386" type="curve" smooth="yes"/>
      <point x="742" y="304"/>
      <point x="674" y="268"/>
    </contour>
  </outline>
</glyph>
<glyph name="strokeshortcomb.case" format="2">
  <anchor x="554" y="712" name="_bar"/>
  <outline>
    <contour>
      <point x="20" y="558" type="line"/>
      <point x="1026" y="558" type="line"/>
      <point x="1090" y="866" type="line"/>
      <point x="84" y="866" type="line"/>
    </contour>
  </outline>
</glyph>
<glyph name="tildecomb.case" format="2">
  <anchor x="637" y="1400" name="_top"/>
  <anchor x="721" y="1802" name="top"/>
  <outline>
    <contour>
      <point x="224" y="1506" type="line"/>
      <point x="293" y="1565"/>
      <point x="376" y="1604"/>
      <point x="458" y="1604" type="curve" smooth="yes"/>
      <point x="581" y="1604"/>
      <point x="727" y="1508"/>
      <point x="876" y="1508" type="curve" smooth="yes"/>
      <point x="968" y="1508"/>
      <point x="1048" y="1542"/>
      <point x="1119" y="1596" type="curve"/>
      <point x="1173" y="1868" type="line"/>
      <point x="1103" y="1808"/>
      <point x="1020" y="1770"/>
      <point x="940" y="1770" type="curve" smooth="yes"/>
      <point x="816" y="1770"/>
      <point x="670" y="1866"/>
      <point x="522" y="1866" type="curve" smooth="yes"/>
      <point x="425" y="1866"/>
      <point x="348" y="1832"/>
      <point x="278" y="1780" type="curve"/>
    </contour>
  </outline>
</glyph>
<glyph name="tildecomb.narrow" format="2">
  <anchor x="513" y="1040" name="_top"/>
  <anchor x="605" y="1464" name="top"/>
  <outline>
    <contour>
      <point x="150" y="1178" type="line"/>
      <point x="216" y="1242"/>
      <point x="290" y="1280"/>
      <point x="358" y="1280" type="curve" smooth="yes"/>
      <point x="466" y="1280"/>
      <point x="589" y="1180"/>
      <point x="719" y="1180" type="curve" smooth="yes"/>
      <point x="802" y="1180"/>
      <point x="873" y="1215"/>
      <point x="938" y="1270" type="curve"/>
      <point x="1002" y="1536" type="line"/>
      <point x="939" y="1474"/>
      <point x="865" y="1434"/>
      <point x="795" y="1434" type="curve" smooth="yes"/>
      <point x="687" y="1434"/>
      <point x="564" y="1534"/>
      <point x="433" y="1534" type="curve" smooth="yes"/>
      <point x="347" y="1534"/>
      <point x="278" y="1499"/>
      <point x="214" y="1445" type="curve"/>
    </contour>
  </outline>
</glyph>
